<?xml version="1.0" standalone="no"?>
<!DOCTYPE svg PUBLIC "-//W3C//DTD SVG 1.1//EN" "http://www.w3.org/Graphics/SVG/1.1/DTD/svg11.dtd" >
<!--
2013-9-30: Created.
-->
<svg>
<metadata>
Created by iconfont
</metadata>
<defs>

<font id="iconfont" horiz-adv-x="1024" >
  <font-face
    font-family="iconfont"
    font-weight="500"
    font-stretch="normal"
    units-per-em="1024"
    ascent="896"
    descent="-128"
  />
    <missing-glyph />
    
    <glyph glyph-name="x" unicode="x" horiz-adv-x="1001"
d="M281 543q-27 -1 -53 -1h-83q-18 0 -36.5 -6t-32.5 -18.5t-23 -32t-9 -45.5v-76h912v41q0 16 -0.5 30t-0.5 18q0 13 -5 29t-17 29.5t-31.5 22.5t-49.5 9h-133v-97h-438v97zM955 310v-52q0 -23 0.5 -52t0.5 -58t-10.5 -47.5t-26 -30t-33 -16t-31.5 -4.5q-14 -1 -29.5 -0.5
t-29.5 0.5h-32l-45 128h-439l-44 -128h-29h-34q-20 0 -45 1q-25 0 -41 9.5t-25.5 23t-13.5 29.5t-4 30v167h911zM163 247q-12 0 -21 -8.5t-9 -21.5t9 -21.5t21 -8.5q13 0 22 8.5t9 21.5t-9 21.5t-22 8.5zM316 123q-8 -26 -14 -48q-5 -19 -10.5 -37t-7.5 -25t-3 -15t1 -14.5
t9.5 -10.5t21.5 -4h37h67h81h80h64h36q23 0 34 12t2 38q-5 13 -9.5 30.5t-9.5 34.5q-5 19 -11 39h-368zM336 498v228q0 11 2.5 23t10 21.5t20.5 15.5t34 6h188q31 0 51.5 -14.5t20.5 -52.5v-227h-327z" />
    

    
    <glyph glyph-name="dongtaiyemianxiaotubiao04" unicode="&#58906;" d="M512 812C229.29408 812 0 582.74688 0 300S229.29408-212 512-212C794.74688-212 1024 17.25312 1024 300S794.74688 812 512 812M657.08032 3.2448l-210.944 173.13792L305.31584 176.38272l0 247.3984 140.94336 0 210.82112 173.13792L657.08032 3.2448z"  horiz-adv-x="1024" />

    
    <glyph glyph-name="shuaxin" unicode="&#58941;" d="M439.4924-144.495011C214.530801-110.918653 56.695313 65.873939 56.695313 300.908448 56.695313 401.63752 73.875532 501.564615 127.597706 578.790238L48.509645 647.932179C31.016493 663.006567 34.912968 701.222627 70.560523 701.222627L285.801212 748C299.886892 748 332.119862 742.1766 332.119862 701.222627 332.119862 660.268653 327.938272 552.719902 324.33417 493.231732 320.730067 433.743562 275.335858 450.288531 264.477098 467.366352L173.531258 544.976563C136.554687 484.171875 116.167848 402.603709 116.167969 300.908448 116.168168 133.026656 246.835945-47.95703 418.093757-78.039062 447.334742-83.175344 480.39457-83.476563 494.1836-83.476563 507.972634-83.476563 532.292976-87.753907 532.292976-110.796874 532.292976-133.839843 513.46351-140.50833 498.21097-144.494976 483.679395-148.293181 446.20767-144.495011 439.4924-144.495011ZM579.200579 746.311935C804.162176 712.735577 961.997664 535.942984 961.997664 300.908477 961.997664 200.179402 944.817446 100.25231 891.095274 23.026685L970.183334-46.115254C987.676483-61.189642 983.78001-99.405702 948.132454-99.405702L732.891766-146.183075C718.806086-146.183075 686.573114-140.359677 686.573114-99.405702 686.573114-58.451728 690.754704 49.097024 694.35881 108.585194 697.962912 168.073363 743.35712 151.528394 754.215882 134.450573L845.161722 56.840362C882.138291 117.64505 902.52513 199.213216 902.525008 300.908477 902.52481 468.790269 771.857034 649.773956 600.599219 679.855987 571.358237 684.992268 538.29841 685.293487 524.509376 685.293487 510.720346 685.293487 486.4 689.570831 486.4 712.613799 486.4 735.656768 505.229466 742.325255 520.482006 746.311901 535.013581 750.110104 572.485306 746.311935 579.200579 746.311935L579.200579 746.311935Z"  horiz-adv-x="1024" />

    
    <glyph glyph-name="shuaxin1" unicode="&#58881;" d="M502.457158-30.648652c-0.077771 0.157589-0.234337 0.23536-0.331551 0.391926l-79.504752 123.812887c-5.650697 9.267061-17.910928 12.514012-27.453259 7.351432l-7.078209-4.339842c-9.54233-5.201465-9.327436-18.575054-3.675716-27.805276l51.147914-79.087243c-4.431939 0.958838-8.840342 2.003634-13.214976 3.140527-89.260953 23.26896-164.757414 83.455737-207.208249 165.150364-40.065508 77.157287-47.613414 165.227112-21.195741 248.016677 26.397207 82.750679 86.329181 150.366659 163.741271 190.295044 13.179161 6.765077 18.340717 22.955828 11.517311 36.056194-6.803963 13.140275-23.034623 18.301831-36.21276 11.497868-90.180905-46.49801-159.518087-125.220956-190.256158-221.659379-30.757514-96.398514-21.99699-198.976774 24.677029-288.844547 49.430806-95.107101 137.381927-165.187203 241.36928-192.328353 1.150196-0.297782 2.307555-0.572028 3.461845-0.859577l-70.217225-35.470863c-9.503445-5.201465-12.671601-16.893762-7.019881-26.161846l2.717901-7.0383c5.67014-9.230222 15.44783-12.514012 24.929786-7.353478l128.74113 65.699328c0.155543 0.078795 0.331551 0.078795 0.488117 0.156566l8.642844 4.732791c4.771677 2.618641 7.919367 6.881734 9.17087 11.614525 1.309832 4.770653 0.723477 10.04989-2.111081 14.663978L502.457158-30.648652zM862.730525 467.301354c-49.353035 95.069239-134.586255 165.149341-238.552118 192.289468-7.314593 1.913583-14.722306 3.611248-22.186302 5.095042L670.715303 699.402549c9.522887 5.201465 15.173584 16.932648 9.541307 26.200732l-2.737344 7.000438c-5.67014 9.268084-17.949814 12.55392-27.434839 7.352455l-128.740106-65.661466c-0.156566-0.11768-0.332575-0.077771-0.48914-0.195451l-8.641821-4.692882c-4.771677-2.620687-7.919367-6.882757-9.190313-11.654434-1.309832-4.731768-0.704035-10.011005 2.131547-14.625092l5.123694-8.368598c0.076748-0.156566 0.233314-0.274246 0.330528-0.429789l79.504752-123.774001c5.650697-9.268084 17.911952-12.55392 27.454282-7.352455l6.256494 4.340865c9.503445 5.161556 10.148128 18.536168 4.497431 27.765367l-51.357691 79.411631c11.320836-1.726318 22.548552-4.036943 33.564443-6.907317 89.301885-23.307845 162.097842-83.493599 204.490348-165.110455 40.064484-77.158311 47.593971-165.227112 21.176298-248.016677-26.396183-82.789565-83.590813-150.366659-161.02337-190.294021-13.179161-6.80601-18.320251-22.957875-11.495822-36.096103 4.76963-9.18929 14.136975-14.46955 23.874757-14.46955 4.14439 0 8.368598 0.976234 12.338003 3.009544 90.180905 46.499034 156.780743 125.221979 187.517791 221.620493C918.165068 274.894206 909.404544 377.472466 862.730525 467.301354z"  horiz-adv-x="1024" />

    
    <glyph glyph-name="sousuo" unicode="&#58883;" d="M1010.304-87.328l-252.992 252.992c-11.968 11.968-31.36 11.968-43.328 0l-11.328-11.328c-1.088 1.472-1.728 3.264-3.136 4.608l-36.608 34.944c-0.768 0.704-1.664 1.024-2.432 1.6 56.768 67.008 89.216 150.144 89.216 238.912 0 99.392-38.72 192.832-109.056 263.168C570.368 767.968 476.864 806.688 377.472 806.688S184.64 767.968 114.368 697.632C44.032 627.36 5.312 533.92 5.312 434.528s38.72-192.896 108.992-263.104c70.336-70.4 163.712-109.056 263.104-109.056 91.072 0 176.32 33.792 244.16 93.44 0.512-0.576 0.64-1.344 1.216-1.792l36.736-35.008c1.344-1.344 3.072-2.048 4.608-3.072l-17.856-17.856c-5.696-5.76-8.96-13.568-8.96-21.632 0-8.192 3.264-16 8.96-21.696l252.992-252.992c6.016-5.952 13.888-9.024 21.632-9.024 7.936 0 15.68 3.072 21.632 9.024l67.776 67.712c5.696 5.76 9.024 13.44 9.024 21.696C1019.328-100.896 1016-93.088 1010.304-87.328zM377.472 106.208c-87.68 0-170.048 34.176-232.128 96.192C83.392 264.352 49.216 346.848 49.216 434.528c0 87.744 34.176 170.112 96.128 232.192 62.08 61.952 144.448 96.064 232.128 96.064s170.176-34.112 232.128-96.064c62.016-62.08 96.192-144.448 96.192-232.192 0-87.68-34.176-170.176-96.192-232.128C547.648 140.384 465.152 106.208 377.472 106.208zM934.272-165.92l-253.952 252.992 46.464 46.4 254.016-252.928L934.272-165.92z"  horiz-adv-x="1024" />

    
    <glyph glyph-name="pingjiaxingxing2" unicode="&#58908;" d="M1022.260379 420.640638 680.301124 489.624778 511.143493 811.883343 341.969489 489.624778 0.021489 420.640638l237.94632-266.862907L194.614419-210.357594l316.529073 155.930375L827.662333-210.357594l-43.355437 364.134301L1022.260379 420.640638 1022.260379 420.640638zM511.143493-2.07999 511.143493 711.363975l138.305973-263.46553 283.406698-57.19463L735.48905 169.369847l35.664268-299.538097L511.143493-2.07999 511.143493-2.07999z"  horiz-adv-x="1024" />

    
    <glyph glyph-name="jilu" unicode="&#58969;" d="M495.007472 306.929325l301.273926 301.298485c30.333896 30.309337 79.485388 30.309337 109.817238 0l27.430773-27.42975c30.285801-30.309337 30.285801-79.485388 0-109.770166l0 0-301.322021-301.323044-219.975237-79.194769M478.848428 154.491341l132.072123 49.175029 7.401581 7.402604-82.339392 82.339392-7.498795-7.474236L478.848428 154.491341 478.848428 154.491341zM563.414536 320.83914l82.339392-82.340416 205.243706 205.268265-82.340416 82.314833L563.414536 320.83914 563.414536 320.83914zM906.244968 553.87587l-27.430773 27.455333c-15.1429 15.117318-39.766742 15.141877-54.908619 0l-27.818607-27.817583L878.427385 471.222322l27.817583 27.768465C921.386845 514.132664 921.386845 538.757529 906.244968 553.87587L906.244968 553.87587zM529.162397 676.368814l0-142.424922c0-21.431123 17.416689-38.823253 38.847812-38.823253l60.133626 0-38.798693-38.775157-21.334932 0c-42.912388 0-77.647529 34.73514-77.647529 77.59841L490.36268 708.612202l-349.313083 0c-21.431123 0-38.798693-17.39213-38.798693-38.823253l0-737.401323c0-21.431123 17.36757-38.823253 38.798693-38.823253l543.40581 0c21.407587 0 38.776181 17.39213 38.776181 38.823253L723.231588 205.988254l36.622119 38.799717 0-312.400345c0-42.86327-32.558566-77.647529-75.398299-77.647529l-543.40581 0c-42.86327 0-73.292333 34.784259-73.292333 77.647529L67.757264 669.788949c0 42.886806 30.429064 75.469931 73.292333 75.469931l291.114531 0 10.352799 0 20.028169 0 54.280308 0 175.080702-186.376991-27.140154-27.140154L529.162397 676.368814 529.162397 676.368814zM529.162397 676.368814M152.903588 7.280411l522.128183 0 0-45.686574-522.128183 0L152.903588 7.280411zM152.903588 194.586565l261.064092 0 0-45.402095-261.064092 0L152.903588 194.586565zM152.903588 368.065791l261.064092 0 0-45.377535-261.064092 0L152.903588 368.065791zM152.903588 547.592764l261.064092 0 0-45.402095-261.064092 0L152.903588 547.592764z"  horiz-adv-x="1024" />

    
    <glyph glyph-name="shouye2" unicode="&#58898;" d="M762.744903-127.967999l-112.764455 0c-22.815283 0-41.150706 17.951436-41.822685 40.798717l0 286.486994c0 53.086331-43.166643 96.316972-96.124978 96.316972-53.054332 0-96.188976-43.230641-96.188976-96.316972l-0.127996-285.431027c0-23.103274-18.783409-41.886683-41.854684-41.886683L261.032675-127.999998c-65.629937 0-119.004259 53.470319-119.004259 119.132255L142.028417 344.40115 41.839566 344.40115c-16.767473 0-31.902997 10.015685-38.558788 25.599195-6.559794 15.807503-3.103902 33.662942 8.767724 45.694563L474.049979 884.032186c15.647508 15.999497 44.094614 15.999497 59.870118-0.255992l87.325255-90.173165c0.63998 22.463294 19.199396 40.574724 41.822685 40.574724l99.676866 0c23.103274 0 41.822685-18.783409 41.822685-41.854684l0-186.650132 205.849529-188.570072c12.7356-11.679633 16.991466-29.759064 10.751662-45.982554-6.175806-15.999497-21.887312-26.783158-39.038773-26.783158l-100.316846 0 0-353.236895C881.81316-74.49768 828.406839-127.967999 762.744903-127.967999z"  horiz-adv-x="1025" />

    
    <glyph glyph-name="shouye1" unicode="&#58903;" d="M512 765.73098 807.384615 470.346364 807.384615-29.538462 846.769231-29.538462 846.769231 430.961749 846.769231 430.961749 901.887801 375.843178 929.736928 403.692308 525.924565 807.504672 512 821.429237 94.263071 403.692308 122.112199 375.843178 177.230769 430.961749 177.230769-9.846154 177.230769-9.846154 177.230769-29.538462 807.384615-29.538462 807.384615 9.846154 649.846154 9.846154 649.846154 305.230769 649.846154 324.923077 393.846154 324.923077 393.846154 324.923077 374.153846 324.923077 374.153846 9.846154 374.153846 9.846154 216.615385 9.846154 216.615385 470.346364 512 765.73098ZM413.538462 9.846154 413.538462 285.538462 610.461538 285.538462 610.461538 9.846154 413.538462 9.846154 413.538462 9.846154Z"  horiz-adv-x="1024" />

    
    <glyph glyph-name="chevron-copy-copy-copy-copy-copy" unicode="&#59168;" d="M531.714 153.149l421.134 421.103c12.223 12.256 12.223 32.062 0 44.317-12.255 12.255-32.093 12.255-44.348 0l-400.575-400.544-393.962 393.93c-11.879 11.91-31.154 11.91-43.032 0-11.942-11.878-11.941-31.154 0-43.061l409.1-409.131c1.598-1.598 3.542-2.382 5.391-3.543 0.721-0.971 1.097-2.163 2.005-3.072 12.223-12.223 32.063-12.223 44.286 0z"  horiz-adv-x="1024" />

    
    <glyph glyph-name="dianhua" unicode="&#58901;" d="M513.716666 896c-282.69685 0-511.906364-229.199099-511.906364-511.887436 0-282.688337 229.20849-511.88846 511.906364-511.88846 282.69992 0 511.90841 229.200122 511.90841 511.88846C1025.625077 666.800901 796.416587 896 513.716666 896zM513.716666-86.786343c-260.117697 0-470.913084 210.788797-470.913084 470.897883 0 260.110109 210.795387 470.979748 470.913084 470.979748 260.120767 0 471.000069-210.870662 471.000069-470.979748C984.716735 124.003478 773.83641-86.786343 513.716666-86.786343zM713.931658 211.39485l-0.083915-0.083911-28.16254-28.077475-99.733462 99.561553 28.16254 28.161387c6.082781 6.081509 15.91511 6.163373 22.080783 0l77.652679-77.317946 0-0.082888C719.679804 227.639836 720.347027 217.809957 713.931658 211.39485zM416.65005 278.296563c-141.222042 144.468322-108.311166 232.781694-93.397914 251.277954l101.979711-101.727892c-14.497773-14.496156-0.416503-35.158754 15.497584-54.821583 22.663068-28.076452 48.823939-52.987818 71.569898-71.483054 34.329236-27.910677 52.240899-40.240493 66.155363-26.411533l99.483765-99.31289C661.439015 158.655695 565.457148 126.078743 416.65005 278.296563zM461.059265 463.588663l-28.161517-28.077475-101.895796 101.81078 28.161517 28.161387c6.082781 5.997598 15.914087 6.164397 22.079759 0l79.817061-79.56615 0-0.166799c5.914952-5.832845 6.499284-15.579837 0-22.078855L461.060289 463.588663z"  horiz-adv-x="1026" />

    
    <glyph glyph-name="faxian" unicode="&#58880;" d="M520.796289-115.101787c-268.572191 0-487.072365 225.145256-487.072365 501.868915 0 276.73269 218.500175 501.87614 487.072365 501.87614 268.566772 0 487.070559-225.141644 487.070559-501.87614C1007.866848 110.043469 789.363061-115.101787 520.796289-115.101787L520.796289-115.101787zM520.796289 866.334652c-256.654755 0-465.421212-215.113513-465.421212-479.567523 0-264.452204 208.766458-479.580167 465.421212-479.580167 256.638499 0 465.415794 215.127963 465.415794 479.580167C986.212083 651.221138 777.434787 866.334652 520.796289 866.334652L520.796289 866.334652zM720.309484 417.288625c0-113.533537-89.317552-205.582093-199.525839-205.582093-110.190225 0-199.511389 92.048556-199.511389 205.582093 0 113.557018 89.321165 205.587512 199.511389 205.587512C630.991932 622.877943 720.309484 530.845642 720.309484 417.288625z"  horiz-adv-x="1024" />

    
    <glyph glyph-name="tongzhi" unicode="&#58894;" d="M238.933333 622.933333 0 622.933333l0-477.866667 238.933333 0 443.733333-238.933333L682.666667 861.866667 238.933333 622.933333 238.933333 622.933333zM68.266667 554.666667l170.666667 0 0-341.333333L68.266667 213.333333 68.266667 554.666667zM614.4 18.773333l-307.2 163.84L307.2 581.973333l307.2 163.84L614.4 18.773333zM805.546667 237.226667c-6.826667 6.826667-13.653333 6.826667-20.48 6.826667-10.24 0-17.066667-3.413333-23.893333-10.24l0-3.413333c-10.24-13.653333-10.24-34.133333 3.413333-47.786667l157.013333-136.533333c6.826667-6.826667 13.653333-6.826667 20.48-6.826667 10.24 0 17.066667 3.413333 23.893333 10.24l0 3.413333c10.24 13.653333 10.24 34.133333-3.413333 47.786667L805.546667 237.226667zM785.066667 554.666667c6.826667 0 17.066667 3.413333 20.48 6.826667l157.013333 133.12c13.653333 13.653333 17.066667 34.133333 3.413333 47.786667-6.826667 6.826667-17.066667 10.24-27.306667 10.24-6.826667 0-17.066667-3.413333-20.48-6.826667l-157.013333-133.12c-13.653333-13.653333-17.066667-34.133333-3.413333-47.786667C768 558.08 774.826667 554.666667 785.066667 554.666667zM1024 384c0 17.066667-13.653333 34.133333-34.133333 34.133333L785.066667 418.133333c-17.066667 0-34.133333-13.653333-34.133333-34.133333L750.933333 384c0-17.066667 13.653333-34.133333 34.133333-34.133333L989.866667 349.866667C1010.346667 349.866667 1024 363.52 1024 384L1024 384z"  horiz-adv-x="1024" />

    
    <glyph glyph-name="jia1" unicode="&#58977;" d="M860.185562 470.004793 587.954391 470.004793 587.954391 742.169449 451.838294 742.169449 451.838294 470.004793 179.672614 470.004793 179.672614 333.888695 451.838294 333.888695 451.838294 61.69027 587.954391 61.69027 587.954391 333.888695 860.185562 333.888695Z"  horiz-adv-x="1024" />

    
    <glyph glyph-name="dizhi" unicode="&#58882;" d="M512 729.6 512 729.6c0 0-268.8-6.4-268.8-288 0-140.8 243.2-454.4 256-467.2L512-51.2l12.8 19.2c12.8 12.8 256 326.4 256 467.2C780.8 723.2 512 729.6 512 729.6zM512 12.8c-44.8 64-230.4 313.6-230.4 428.8 0 249.6 217.6 256 230.4 256 6.4 0 230.4-6.4 230.4-249.6C742.4 320 556.8 70.4 512 12.8zM512 569.6c-64 0-115.2-51.2-115.2-115.2 0-64 51.2-115.2 115.2-115.2 64 0 115.2 51.2 115.2 115.2C627.2 518.4 576 569.6 512 569.6zM512 377.6c-44.8 0-76.8 32-76.8 76.8 0 44.8 32 76.8 76.8 76.8 44.8 0 76.8-32 76.8-76.8C588.8 416 556.8 377.6 512 377.6zM512-128c-281.6 0-512 230.4-512 512s230.4 512 512 512 512-230.4 512-512S793.6-128 512-128zM512 857.6C249.6 857.6 38.4 646.4 38.4 384s211.2-473.6 473.6-473.6 473.6 211.2 473.6 473.6S774.4 857.6 512 857.6z"  horiz-adv-x="1024" />

    
    <glyph glyph-name="faxian1" unicode="&#58889;" d="M525.813099 845.298248c-245.538229 0-444.582541-199.043289-444.582541-444.581518 0-245.540276 199.043289-444.583564 444.582541-444.583564s444.581518 199.043289 444.581518 444.583564C970.394616 646.255982 771.347235 845.298248 525.813099 845.298248L525.813099 845.298248zM525.813099-5.202233c-223.827765 0-405.919986 182.091198-405.919986 405.918963 0 223.827765 182.092221 405.919986 405.919986 405.919986 223.826741 0 405.919986-182.092221 405.919986-405.919986C931.733085 176.889989 749.63984-5.202233 525.813099-5.202233L525.813099-5.202233zM752.538867 653.597181 444.915627 489.578594c-3.388167-1.807159-6.158257-4.576225-7.963369-7.963369L272.932648 173.985846c-4.004197-7.506974-2.63092-16.739243 3.387144-22.762423 3.714602-3.713578 8.665357-5.656837 13.674441-5.656837 3.096525 0 6.216585 0.73985 9.086959 2.272763l307.626309 164.022681c3.387144 1.805112 6.157233 4.575202 7.963369 7.962346l164.020634 307.625286c4.001127 7.506974 2.62785 16.742313-3.390213 22.7614C769.287319 656.218892 760.050957 657.601378 752.538867 653.597181L752.538867 653.597181zM583.328024 343.197712 336.912821 211.822592l131.38126 246.414179L714.707236 589.611891 583.328024 343.197712 583.328024 343.197712zM487.151567 400.71673c0-10.120498 4.166903-20.180622 11.322883-27.337625 7.157004-7.157004 17.217127-11.32186 27.338648-11.32186 10.119475 0 20.181645 4.164856 27.337625 11.32186 7.158027 7.157004 11.32186 17.21815 11.32186 27.337625 0 10.120498-4.163833 20.180622-11.32186 27.337625-7.15598 7.15598-17.21815 11.322883-27.337625 11.322883-10.121522 0-20.181645-4.166903-27.338648-11.322883C491.317447 420.897352 487.151567 410.837228 487.151567 400.71673L487.151567 400.71673z"  horiz-adv-x="1024" />

    
    <glyph glyph-name="xiaoxi3" unicode="&#58935;" d="M935.112265 225.450922c-1.275536 1.78575-34.949676 49.108122-69.389138 114.160438-31.250623 59.567514-68.75137 146.686597-68.75137 220.285002 0 82.782262-15.944195 152.809168-47.832586 208.03986 0 0.637768-52.679621 87.246637-135.844544 117.221724-28.444444 7.015446-60.205282 10.842053-93.879422 10.842053-39.158944 0-76.021923-5.35725-107.655207-14.541106l0 0-6.122571-2.423518c-51.531639-19.005481-94.51719-54.592925-125.130045-101.915296-36.225212-56.506228-53.955157-130.104634-53.955157-217.861485 0-142.349776-136.227205-333.169905-138.012955-334.955655-4.336821-6.122571-6.122571-14.158445-4.336821-22.066766 1.78575-7.398107 6.760339-14.158445 13.520678-17.857499 4.719482-2.295964 109.696064-58.802192 243.882412-90.563029 53.444943-11.352267 111.609367-17.602392 172.57997-17.602392 50.383657 0 98.981565 4.336821 144.518186 12.245142l4.209268 0.892875c141.07424 30.740409 251.535625 89.542601 263.780767 95.665172 6.760339 3.699053 11.607374 9.821624 13.520678 17.857499C941.234836 211.42003 939.321533 219.328351 935.112265 225.450922zM690.847193 64.350772l-4.974589-1.147982c-53.827603-9.438964-111.099153-14.413553-170.666667-14.413553-68.241156 0-133.676134 6.632785-194.008969 18.877927 0-1.658196 0-3.316393 0-4.847035 0-105.359243 85.460887-190.82013 190.82013-190.82013 105.359243 0 190.82013 85.460887 190.82013 190.82013 0 1.403089 0 2.806178 0 4.209268C698.627961 66.008969 694.801354 65.116094 690.847193 64.350772z"  horiz-adv-x="1024" />

    
    <glyph glyph-name="jia" unicode="&#58904;" d="M831.078129 354.993363 192.921871 354.993363c-15.954367 0-29.006637 13.053294-29.006637 29.006637l0 0c0 15.954367 13.053294 29.006637 29.006637 29.006637l638.156258 0c15.954367 0 29.006637-13.053294 29.006637-29.006637l0 0C860.084767 368.046656 847.031473 354.993363 831.078129 354.993363zM482.992339 64.921871 482.992339 703.078129c0 15.954367 13.053294 29.006637 29.006637 29.006637l0 0c15.954367 0 29.006637-13.053294 29.006637-29.006637l0-638.156258c0-15.954367-13.053294-29.006637-29.006637-29.006637l0 0C496.045633 35.915233 482.992339 48.968527 482.992339 64.921871z"  horiz-adv-x="1024" />

    
    <glyph glyph-name="home_news" unicode="&#58884;" d="M907.741 184.33l-80.239 106.055v198.156c0 90.451-30.954 174.369-87.216 236.15-33.237 36.599-73.262 63.557-118.995 80.366-4.186 24.23-16.238 46.367-34.379 62.923-40.976 37.36-108.846 37.36-149.695 0-18.395-16.682-30.446-38.819-34.569-62.986-45.67-16.682-85.694-43.64-118.931-80.303-56.199-61.908-87.216-145.826-87.216-236.087l0.254-197.839-79.668-105.421c-11.227-11.988-17.38-27.529-17.38-43.83v-51.569c0-35.331 28.734-64.001 64.001-64.001h696.653c35.331 0 63.938 28.67 63.938 64.001v51.569c0 16.302-6.153 31.842-16.555 42.815v0zM546.125 821.739c-9.451 0.825-24.674 2.474-33.999 2.474-9.324 0-25.182-1.586-34.569-2.474 15.858 25.879 56.707 21.122 68.568 0v0zM164.593 89.946l-0.127 51.188 79.668 105.421c11.1 11.988 17.316 27.465 17.316 43.83v198.219c0 74.213 24.991 142.654 70.281 192.637 22.454 24.738 48.968 43.894 78.717 57.087 62.479 27.782 141.069 27.782 203.42 0 29.812-13.32 56.263-32.54 78.653-57.151 45.353-49.983 70.281-118.361 70.281-192.637v-198.156c0-16.428 6.153-32.096 16.555-42.879l80.303-105.992 0.634-50.871-695.702-0.698zM591.795-1.584c-4.821-11.227-11.798-21.376-21.059-29.812-32.096-29.241-85.187-29.178-117.092-0.063-9.197 8.5-16.302 18.712-21.122 29.876l-67.617-0c6.914-29.685 22.454-56.77 45.226-77.575 27.846-25.626 64.128-39.707 102.186-39.707 37.995 0 74.277 14.081 102.059 39.58 22.771 20.805 38.312 47.89 45.226 77.638l-67.807 0.063z"  horiz-adv-x="1024" />

    
    <glyph glyph-name="fukuan" unicode="&#58922;" d="M857.461009 28.378583 166.538991 28.378583c-56.021921 0-101.606119 45.584198-101.606119 101.606119L64.932872 638.015298c0 56.021921 45.584198 101.606119 101.606119 101.606119l690.922019 0c56.021921 0 101.606119-45.584198 101.606119-101.606119l0-508.031619C959.067128 73.961758 913.482931 28.378583 857.461009 28.378583zM166.538991 698.979788c-33.617655 0-60.963467-27.346835-60.963467-60.963467l0-508.031619c0-33.617655 27.346835-60.963467 60.963467-60.963467l690.922019 0c33.617655 0 60.963467 27.346835 60.963467 60.963467L918.424476 638.015298c0 33.617655-27.346835 60.963467-60.963467 60.963467L166.538991 698.978764zM74.222445 564.840718l854.460676 0 0-102.33062-854.460676 0 0 102.33062ZM218.508619 218.963223l283.455817 0 0-40.932248-283.455817 0 0 40.932248Z"  horiz-adv-x="1024" />

    
    <glyph glyph-name="dingdan" unicode="&#59202;" d="M133.095809 751.452883c0 15.295358 12.404518 27.698852 27.698852 27.698852l593.873706 0c15.294334 0 27.697829-12.403494 27.697829-27.698852l0-303.414381c0-15.296381-12.403494-27.699875-27.697829-27.699875-15.296381 0-27.699875 12.404518-27.699875 27.699875L726.968491 723.754031l-538.484188 0 0-670.530596 267.7583 0c15.295358 0 27.690666-12.403494 27.690666-27.699875 0-15.294334-12.394285-27.689642-27.690666-27.689642L160.794661-2.166083c-15.295358 0-27.698852 12.394285-27.698852 27.689642L133.095809 751.452883zM411.902746 163.238061c-11.288091 10.277064-12.117992 27.76639-1.841951 39.053458 10.276041 11.288091 27.76639 12.108782 39.054481 1.832741l122.304534-111.179149L856.515986 483.389638c8.960069 12.308327 26.210965 15.018042 38.511105 6.057973 12.299117-8.969279 15.018042-26.209942 6.057973-38.519292L599.042937 37.270091c-0.876973-1.412163-1.898233-2.768043-3.052522-4.03592-10.276041-11.288091-27.767414-12.119015-39.053458-1.841951L411.902746 163.238061zM254.695285 623.118006c-15.286148 0-27.690666 12.394285-27.690666 27.689642s12.404518 27.699875 27.690666 27.699875l129.775692 0c15.295358 0 27.698852-12.404518 27.698852-27.699875s-12.404518-27.689642-27.698852-27.689642L254.695285 623.118006zM325.866231 510.727263c-15.295358 0-27.690666 12.404518-27.690666 27.698852s12.395308 27.689642 27.690666 27.689642l334.902536 0c15.295358 0 27.690666-12.394285 27.690666-27.689642s-12.394285-27.698852-27.690666-27.698852L325.866231 510.727263zM325.866231 398.344706c-15.295358 0-27.690666 12.404518-27.690666 27.690666 0 15.295358 12.395308 27.698852 27.690666 27.698852l334.902536 0c15.295358 0 27.690666-12.404518 27.690666-27.698852 0-15.286148-12.394285-27.690666-27.690666-27.690666L325.866231 398.344706zM436.119287 285.953963c-15.295358 0-27.699875 12.404518-27.699875 27.698852s12.404518 27.690666 27.699875 27.690666l224.648456 0c15.295358 0 27.690666-12.395308 27.690666-27.690666s-12.394285-27.698852-27.690666-27.698852L436.119287 285.953963z"  horiz-adv-x="1024" />

    
    <glyph glyph-name="dingdan1" unicode="&#58945;" d="M815.786667 882.176 158.72 882.176c-40.448 0-73.386667-32.938667-73.386667-73.386667l0-822.613333c0-40.448 32.938667-73.386667 73.386667-73.386667l489.984 0L889.173333 150.528l0 658.261333C889.173333 849.237333 856.234667 882.176 815.786667 882.176zM641.706667-46.250667l0 165.376c0 21.674667 17.578667 39.253333 39.253333 39.253333l167.765333 0L641.706667-46.250667zM855.04 192.682667 680.96 192.682667c-40.448 0-73.386667-32.938667-73.386667-73.386667l0-172.373333L158.72-53.077333c-21.674667 0-39.253333 17.578667-39.253333 39.253333l0 822.613333c0 21.674667 17.578667 39.253333 39.253333 39.253333l657.066667 0c21.674667 0 39.253333-17.578667 39.253333-39.253333L855.04 192.682667zM658.773333 624.469333 303.786667 624.469333c-5.632 0-10.24-4.608-10.24-10.24s4.608-10.24 10.24-10.24l354.986667 0c5.632 0 10.24 4.608 10.24 10.24C669.013333 619.861333 664.405333 624.469333 658.773333 624.469333zM658.773333 425.130667 303.786667 425.130667c-5.632 0-10.24-4.608-10.24-10.24s4.608-10.24 10.24-10.24l354.986667 0c5.632 0 10.24 4.608 10.24 10.24S664.405333 425.130667 658.773333 425.130667z"  horiz-adv-x="1024" />

    
    <glyph glyph-name="xiaoxi4" unicode="&#58907;" d="M844.8 245.76v256c0 66.56-28.16 176.64-79.36 227.84-48.64 48.64-135.68 97.28-199.68 99.84v25.6c0 23.04-17.92 40.96-40.96 40.96h-5.12c-23.04 0-40.96-17.92-40.96-40.96v-25.6c-64-7.68-138.24-53.76-184.32-99.84-51.2-51.2-71.68-161.28-71.68-227.84v-256l-151.04-148.48v-56.32h304.64c0-87.04 71.68-158.72 158.72-158.72 87.04 0 156.16 71.68 158.72 158.72h281.6v56.32L844.8 245.76zM535.04-53.76c-51.2 0-92.16 43.52-92.16 94.72h186.88c-2.56-53.76-43.52-94.72-94.72-94.72z"  horiz-adv-x="1024" />

    
    <glyph glyph-name="jilu1" unicode="&#59433;" d="M1022.72024 394.803308c0 55.669562-10.707326 110.315316-28.901248 162.785477-22.481118 62.111021-54.624425 116.735445-98.498865 165.984878a523.656481 523.656481 0 0 1-209.923306 142.437293c-38.563436 13.928055-78.172009 22.502447-119.956174 26.789644-13.906726 1.066467-27.834781 2.132933-41.741507 2.132933-2.175592 0-5.374992 1.087796-7.507926 1.087796h-7.529255c-2.154263 0-4.265867-1.087796-6.420129-1.087796-55.669562-1.066467-110.293987-10.685996-162.785478-29.967714-62.111021-22.502447-116.735445-54.624425-166.006207-98.520194-65.33175-56.757358-113.514716-127.442771-143.50376-208.83551-13.928055-38.563436-22.502447-79.259805-26.768314-119.934846-1.066467-13.928055-2.154263-27.85611-2.154263-42.850632 0-2.154263 0-5.353663-1.066467-7.507926v-7.507925c0-2.154263 1.066467-4.265867 1.066467-6.42013 1.087796-55.690891 10.707326-110.315316 29.989044-162.785477 21.414651-58.911621 51.403695-111.381783 92.100064-158.498282 58.911621-68.55248 130.642171-118.889708 215.234311-148.857423a515.423358 515.423358 0 0 1 119.956174-27.85611c13.928055-1.066467 27.85611-2.154263 41.762837-2.154263 2.154263 0 5.374992-1.066467 7.507925-1.066466h7.507926c2.154263 0 4.287196 1.066467 6.420129 1.066466 55.690891 1.087796 110.315316 10.707326 162.785478 29.989044 62.111021 22.502447 116.756775 54.624425 166.006207 98.520194 65.33175 57.823825 112.42692 127.442771 142.415964 208.83551a515.03943 515.03943 0 0 1 27.87744 119.934846c1.066467 13.928055 2.132933 27.85611 2.132933 42.850632 0 2.154263 0 5.353663 1.087796 7.486596v7.529255c0 2.132933-1.087796 4.265867-1.087796 6.42013z m-516.191214-479.782041c-259.151409 3.220729-466.920452 215.276969-463.699723 474.428378 3.220729 259.151409 215.25564 466.941782 475.494845 463.721052 259.172738-3.220729 466.941782-216.343436 463.721052-474.428378-4.287196-259.151409-216.343436-466.941782-475.516174-463.721052zM485.24235 714.70066h53.323336v-357.266346h-53.323336zM485.24235 410.75765h357.266346v-53.323336H485.24235z"  horiz-adv-x="1024" />

    
    <glyph glyph-name="xiaoxi5" unicode="&#59127;" d="M512-19.968c59.904 0 107.52 48.128 107.52 108.032H404.48c0-59.904 48.128-108.032 107.52-108.032zM582.656 704.512c99.328-34.816 180.736-140.8 180.736-266.24v-98.816s0-142.336 34.816-143.872h1.024c19.968 0 35.84-15.872 35.84-35.84s-15.872-35.84-35.84-35.84H224.768c-19.968 0-35.84 15.872-35.84 35.84s15.872 35.84 36.864 35.84c34.816 1.024 34.816 143.872 34.816 143.872v98.816c0 125.44 81.408 231.936 180.736 266.24-1.024 3.584-1.024 7.68-1.024 11.776 0 39.424 32.256 71.68 71.68 71.68s71.68-32.256 71.68-71.68c0-4.096 0-8.192-1.024-11.776z"  horiz-adv-x="1024" />

    
    <glyph glyph-name="shouye-s" unicode="&#58899;" d="M814.592 368.128c-11.776 0-21.504-9.728-21.504-21.504v-327.168h-171.008v227.328H394.752v-227.328H224.256v327.168c0 11.776-9.728 21.504-21.504 21.504-11.776 0-21.504-9.728-21.504-21.504v-369.664h256V204.8h142.336v-227.328h256v369.664c0.512 11.264-9.216 20.992-20.992 20.992z m134.656 8.704L508.928 788.48l-440.32-410.624c-8.704-8.192-9.216-21.504-1.024-30.208 8.192-8.704 21.504-9.216 30.208-1.024l411.136 383.488 411.136-384.512c4.096-4.096 9.216-5.632 14.336-5.632 5.632 0 11.264 2.048 15.36 6.656 8.192 8.704 7.68 22.016-0.512 30.208z m-284.16 296.96h128v-113.664c0-11.776 9.728-21.504 21.504-21.504 11.776 0 21.504 9.728 21.504 21.504V716.8h-171.008c-11.776 0-21.504-9.728-21.504-21.504 0.512-11.776 9.728-21.504 21.504-21.504zM832.512-16.896s-156.16-1.024-245.76 0c0.512 24.576-2.56 185.344-3.072 223.744-52.736 5.632-85.504-1.024-148.48-1.536-1.536-51.712-2.048-154.624-4.608-222.208-60.928-1.536-206.848 1.024-240.64-0.512-5.632 0-4.608 194.048-7.68 358.4H84.48l424.448 446.464 426.496-448h-102.912v-356.352z"  horiz-adv-x="1024" />

    
    <glyph glyph-name="faxian2" unicode="&#58885;" d="M874.048 746.048c-199.936 199.936-524.16 199.936-724.096 0s-199.936-524.16 0-724.096 524.16-199.936 724.096 0 199.936 524.16 0 724.096zM184.64 56.64c-180.8 180.8-180.8 473.92 0 654.72s473.92 180.8 654.72 0 180.8-473.92 0-654.784-473.92-180.736-654.72 0.064zM437.376 463.296l-187.008-345.664 339.072 193.6 193.6 339.072-345.664-187.008zM516.672 350.464c-18.56 0-33.536 14.976-33.536 33.536 0 18.496 15.040 33.536 33.536 33.536 18.496 0 33.536-15.040 33.536-33.536-0-18.56-15.040-33.536-33.536-33.536z"  horiz-adv-x="1024" />

    
    <glyph glyph-name="shouye3" unicode="&#58909;" d="M512-128C229.376-128 0 101.376 0 384S229.376 896 512 896s512-229.376 512-512-229.376-512-512-512zM384 512l93.184-90.624C486.4 430.08 498.688 435.2 512 435.2c28.16 0 51.2-23.04 51.2-51.2 0-12.8-5.12-24.576-12.8-33.792L640 256l-89.6 94.208c-9.216-10.752-23.04-17.408-38.4-17.408-28.16 0-51.2 23.04-51.2 51.2 0 14.848 6.144 27.648 16.384 37.376L384 512l-109.568-368.128L640 256l105.984 377.344L384 512z"  horiz-adv-x="1024" />

    
    <glyph glyph-name="xiaoxi" unicode="&#58963;" d="M603.164 62.207h-0.036a18.219 18.219 0 0 1-18.227-18.188c-0.07-40.243-32.765-72.992-72.901-72.992s-72.83 32.749-72.901 72.992a18.22 18.22 0 0 1-18.227 18.188h-0.036c-10.055-0.018-18.207-8.186-18.189-18.26 0.107-60.3 49.16-109.371 109.353-109.371s109.244 49.07 109.355 109.37c0.016 10.075-8.136 18.243-18.19 18.261z m214.41 143.705c-11.12 9.503-21.122 71.87-21.142 132.844V444.531c0 133.7-75.82 250.192-190.135 294.56v0.037c0 51.987-42.306 94.294-94.297 94.294-51.987 0-94.277-42.307-94.277-94.294v-0.374c-112.628-45.938-190.155-164.812-190.155-294.223v-104.707c-0.016-61.207-9.86-123.981-20.824-133.932-31.129-0.993-55.228-25.325-55.228-56.205 0-31.023 25.239-56.26 56.242-56.26h608.488c31.001 0 56.24 25.237 56.24 56.26 0 30.557-24.51 55.511-54.911 56.225z m-1.328-78.352H207.758c-12.192 0-22.11 9.927-22.11 22.127 0 12.388 9.33 21.678 22.184 22.09a34.142 34.142 0 0 1 21.851 8.838c8.917 8.094 18.155 21.904 25.304 67.764 4.32 27.72 6.705 60.19 6.713 91.437V444.533c0 56.77 16.374 112.046 47.355 159.852 30.645 47.293 72.68 82.83 121.559 102.766a34.134 34.134 0 0 1 21.24 31.607v0.374c0 33.174 26.98 60.163 60.144 60.163 33.174 0 60.163-26.99 60.163-60.163a34.18 34.18 0 0 1 21.783-31.856c49.449-19.192 91.508-53.946 121.63-100.504 30.565-47.243 46.722-103.345 46.722-162.237V338.76c0.01-31.19 2.439-63.539 6.834-91.104 7.347-46.038 16.966-59.742 26.266-67.691a34.134 34.134 0 0 1 21.374-8.174c11.901-0.281 21.58-10.193 21.58-22.102 0.002-12.202-9.914-22.129-22.104-22.129z"  horiz-adv-x="1024" />

    
    <glyph glyph-name="sousuo1" unicode="&#58890;" d="M966.4-28.8L736 198.4c60.8 67.2 96 156.8 96 256C832 672 656 844.8 441.6 844.8c-217.6 0-390.4-176-390.4-390.4 0-217.6 176-390.4 390.4-390.4 99.2 0 188.8 35.2 256 96L928-67.2c9.6-9.6 28.8-9.6 38.4 0 12.8 12.8 12.8 28.8 0 38.4z m-864 483.2c0 185.6 150.4 339.2 339.2 339.2s339.2-150.4 339.2-339.2c0-89.6-35.2-172.8-92.8-233.6-3.2 0-3.2-3.2-6.4-3.2-3.2-3.2-3.2-3.2-3.2-6.4-60.8-57.6-144-92.8-233.6-92.8-188.8-3.2-342.4 150.4-342.4 336z"  horiz-adv-x="1024" />

    
    <glyph glyph-name="kuaidi" unicode="&#58886;" d="M423.383 273.854c0.137-0.023 0.262-0.061 0.397-0.084l150.632-23.423 56.429-143.024c7.705-19.528 26.407-31.443 46.201-31.443 6.062 0 12.229 1.116 18.215 3.475 25.502 10.066 38.023 38.904 27.965 64.406l-66.869 169.486c-6.457 16.357-21.191 28.142-38.56 30.843l-124.803 19.413c-0.647 29.288 2.578 59.619 7.191 88.517-9.124 7.174-17.209 14.479-24.24 21.506-33.544 33.38-50.422 66.103-54.8 75.336l-0.025 0.055-0.17 0.367c-4.397 9.656-4.764 20.453-1.040 30.384 3.721 9.933 11.096 17.824 20.752 22.211 5.212 2.378 10.74 3.574 16.431 3.574 15.542 0 29.741-9.136 36.172-23.276l0.197-0.391c0.293-0.6 0.78-1.563 1.464-2.841 1.384-2.605 3.713-6.758 6.953-11.813 3.791-5.933 9.279-13.799 16.413-22.348 7.162 37.544-7.932 78.946-39.432 86.796-33.911 8.456-83.067-9.961-103.068-68.123-27.030-80.14-32.842-132.299-22.569-220.541 9.935-51.12 39.936-65.561 70.164-69.063zM812.749 349.147c33.45 0 33.45 121.154 0 121.154-33.454 0-60.576-27.12-60.576-60.576s27.12-60.578 60.576-60.578zM495.186 562.842c-3.342 5.22-5.759 9.515-7.281 12.356-0.756 1.421-1.292 2.48-1.602 3.123-0.129 0.264-0.223 0.455-0.283 0.567h0.004c-7.272 15.976-26.108 23.034-42.084 15.763-15.983-7.262-23.034-26.1-15.772-42.074 1.057-2.187 17.039-37.265 53.389-73.429 35.957-35.955 94.448-73.224 175.069-73.228 0.154 0 0.295 0 0.449 0 4.725 0 9.482 0.131 14.281 0.375 17.527 0.895 31.013 15.821 30.12 33.35-0.893 17.527-15.829 31.011-33.346 30.116-3.799-0.195-7.483-0.285-11.055-0.285-60.881 0.131-102.24 26.817-130.763 54.804-14.080 13.947-24.449 28.117-31.128 38.562zM561.859 667.036c-10.93-5.849-22.678-7.68-34.626-7.68-10.439 0.008-21.096 1.372-31.853 2.775-10.037 1.305-18.899 3.371-26.804 6.185 12.141-15.704 29.555-27.492 50.397-32.342 48.060-11.196 96.094 18.696 107.297 66.755 4.95 21.266 1.847 42.521-7.305 60.586-16.003-1.964-37.538-5.947-48.409-14.34-4.962-3.807-7.479-7.811-7.52-12.988 0-0.266 0.008-0.541 0.031-0.848 1.018-19.218 5.39-32.602 5.454-45.883 0.018-6.849-1.307-13.683-5.032-20.599-0.358-0.676-0.942-1.255-1.63-1.62zM446.439 690.868c10.971-11.035 26.69-17.805 49.973-20.863 10.732-1.405 21.090-2.712 30.82-2.701 10.748 0 20.666 1.567 29.798 6.175 2.636 5.317 3.531 10.238 3.545 15.778 0.063 11.36-4.309 25.268-5.439 45.431-0.031 0.428-0.039 0.864-0.047 1.298-0.033 8.182 4.504 14.748 10.682 19.331 6.205 4.665 14.207 7.866 22.645 10.279 14.588 4.145 30.628 5.831 40.442 6.738-1.698 12.063-5.503 23.552-11.096 34.038-15.178 28.479-43.366 49.433-77.793 53.932-4.545 0.598-9.052 0.881-13.513 0.881-0.006 0-0.010 0-0.018 0-51.061-0.002-95.468-37.894-102.253-89.911-0.59-4.524-0.881-9.019-0.881-13.457 0-6.14 0.549-12.184 1.606-18.090 3.924-22.008 10.547-37.81 21.529-48.857zM985.539 155.996c-38.492 50.156-92.033 59.881-129.69 59.378-2.363 6.369-4.809 13.029-7.354 20.066-23.077 63.801-74.902 94.19-105.404 107.041l-29.407 85.764c-0.926 2.687-2.427 5.085-4.327 7.115-1.321-19.792-17.299-35.965-37.593-37.007-5.016-0.252-9.959-0.383-14.688-0.383h-0.449c-13.494 0.002-26.321 0.997-38.494 2.802-0.059-2.49 0.324-5.034 1.257-7.508 3.871-10.26 15.331-15.432 25.598-11.559v0.008l37.759 14.27 89.606-261.321c15.512 16.951 35.111 29.835 57.475 37.419 14.381 4.876 29.319 7.354 44.378 7.354 47.976 0 91.57-24.74 116.539-63.959 14.862 0.711 18.668 9.413-5.206 40.52zM836.209 153.276c-61.895-20.986-95.062-88.179-74.074-150.075 20.986-61.895 88.173-95.062 150.075-74.076 61.897 20.986 95.062 88.181 74.076 150.075-20.988 61.897-88.175 95.064-150.077 74.076zM889.221-3.074c-24.453-8.294-51.003 4.817-59.288 29.264-8.286 24.453 4.819 51.003 29.264 59.288 24.453 8.294 51.003-4.819 59.288-29.264 8.294-24.453-4.809-50.993-29.264-59.288zM737.54 61.987h-253.264c-21.897 44.175-29.426 89.27-31.92 118.608 6.502 1.991 11.262 7.971 11.262 15.124v43.694c0 8.776-7.113 15.89-15.888 15.89h-323.74c-8.774 0-15.888-7.113-15.888-15.89v-43.694c0-8.776 7.115-15.888 15.888-15.888h1.751c-17.256-42.342-43.887-115.735-43.887-165.511 0 0 26.995 0 68.489 0-5.958 29.727-2.025 60.414 11.614 88.050 16.347 33.102 44.595 57.868 79.555 69.712 14.391 4.882 29.317 7.35 44.386 7.35 59.251 0 111.843-37.714 130.875-93.858 8.063-23.775 9.216-48.243 4.61-71.252 9.509 0 18.827 0 27.906 0 23.943 0 46.18 0 65.54 0h223.836c-3.174 15.817-3.543 31.906-1.126 47.665zM247.89 153.276c-61.897-20.986-95.062-88.181-74.076-150.075 20.986-61.897 88.173-95.062 150.075-74.076 61.897 20.988 95.062 88.181 74.076 150.075-20.99 61.897-88.173 95.064-150.075 74.076zM300.902-3.074c-24.455-8.294-51.003 4.817-59.29 29.264-8.286 24.453 4.819 51.003 29.266 59.288 24.453 8.294 51.001-4.819 59.288-29.264 8.294-24.453-4.809-50.993-29.264-59.288zM318.863 297.689v247.349c0 11.706-9.488 21.199-21.197 21.199h-250.886c-11.706 0-21.195-9.492-21.195-21.199v-247.349c0-11.713 9.488-21.203 21.195-21.203h250.888c11.706 0.002 21.195 9.492 21.195 21.203zM230.949 461.982l-74.152-158.88c-1.192-2.29-3.113-3.432-5.767-3.432-0.367 0-1.008 0.092-1.923 0.272-1.556 0.459-2.724 1.327-3.502 2.611-0.778 1.28-0.985 2.652-0.618 4.116l27.052 110.954-55.751-13.869c-0.367-0.092-0.915-0.137-1.649-0.137-1.649 0-3.066 0.5-4.256 1.509-1.649 1.374-2.245 3.16-1.786 5.356l27.601 113.289c0.367 1.282 1.1 2.335 2.198 3.158 1.1 0.825 2.38 1.235 3.844 1.235h45.040c1.737 0 3.203-0.571 4.393-1.718 1.19-1.145 1.786-2.494 1.786-4.051 0-0.733-0.231-1.556-0.688-2.47l-23.48-63.578 54.378 13.457c0.735 0.182 1.282 0.274 1.651 0.274 1.739-0.004 3.297-0.69 4.669-2.062 1.649-1.825 1.968-3.838 0.961-6.035z"  horiz-adv-x="1024" />

    
    <glyph glyph-name="dingdan2" unicode="&#58985;" d="M841.937454-54.270788h-664.309917c-60.397578 0-109.535719 49.13814-109.535719 109.535718V608.238111c0 60.397578 49.13814 109.535719 109.535719 109.535718h26.466791c11.30344 0 20.466124-9.162684 20.466124-20.466124s-9.162684-20.466124-20.466124-20.466124h-26.466791c-37.82856 0-68.603471-30.775934-68.603471-68.60347v-552.973181c0-37.82856 30.774911-68.603471 68.603471-68.60347h664.309917c37.82856 0 68.603471 30.774911 68.603471 68.60347V608.238111c0 37.827537-30.774911 68.603471-68.603471 68.60347h-22.750143c-11.30344 0-20.466124 9.162684-20.466124 20.466124s9.162684 20.466124 20.466124 20.466124h22.750143c60.397578 0 109.535719-49.13814 109.535719-109.535718v-552.973181c0-60.398602-49.13814-109.535719-109.535719-109.535718zM735.122707 372.520551H284.442284c-11.30344 0-20.466124 9.162684-20.466124 20.466124s9.162684 20.466124 20.466124 20.466124h450.680423c11.30344 0 20.466124-9.162684 20.466124-20.466124s-9.162684-20.466124-20.466124-20.466124zM537.950022 242.628202H284.442284c-11.30344 0-20.466124 9.162684-20.466124 20.466124s9.162684 20.466124 20.466124 20.466124h253.507738c11.30344 0 20.466124-9.162684 20.466124-20.466124s-9.162684-20.466124-20.466124-20.466124zM615.410208 114.206344H284.442284c-11.30344 0-20.466124 9.162684-20.466124 20.466124s9.162684 20.466124 20.466124 20.466124h330.967924c11.30344 0 20.466124-9.162684 20.466124-20.466124s-9.162684-20.466124-20.466124-20.466124zM708.332551 720.785419h-72.100109c-9.827833 60.935838-62.784952 107.625206-126.449947 107.625207s-116.622114-46.689369-126.449946-107.625207h-72.101132c-27.655873 0-50.15633-22.499433-50.15633-50.15633v-71.673389c0-27.655873 22.499433-50.15633 50.15633-50.15633h397.101134c27.655873 0 50.15633 22.499433 50.15633 50.15633v71.673389c0 27.656897-22.500457 50.15633-50.15633 50.15633z m9.224082-121.829719c0-4.999874-4.224208-9.224082-9.224082-9.224082H311.231417c-4.999874 0-9.224082 4.224208-9.224082 9.224082v71.673389c0 4.999874 4.224208 9.224082 9.224082 9.224083h90.921779c11.30344 0 20.466124 9.162684 20.466124 20.466124h0.00307c0 48.059576 39.099507 87.159082 87.159082 87.159082 48.060599 0 87.160105-39.099507 87.160106-87.159082h0.001023c0-11.30344 9.162684-20.466124 20.466124-20.466124h90.923826c4.999874 0 9.224082-4.224208 9.224082-9.224083v-71.673389z"  horiz-adv-x="1024" />

    
    <glyph glyph-name="wode" unicode="&#58913;" d="M447.744 877.7728c77.8752 6.912 158.6688 3.9424 232.6528-23.3984 74.4448-28.0064 143.7696-71.1168 199.1168-128.4608 97.5872-103.4752 143.872-249.4464 132.4032-390.4-9.6256-95.3856-47.2064-187.5456-106.752-262.7072-51.456-68.608-125.0816-116.9408-202.9568-150.784-77.312-32.256-163.072-38.1952-245.8624-33.7408-158.7712 16.6912-309.3504 113.3568-384.4608 255.1808-85.8112 155.392-82.432 357.2736 15.4112 506.624C163.7888 776.2432 301.7216 861.184 447.744 877.7728m25.5488-56.064C331.3664 809.472 196.7104 724.3264 128.0512 599.04c-38.144-68.352-63.8464-146.176-56.6272-225.3824-1.28-89.3952 33.8432-173.824 81.92-247.5008 38.8096 88.32 107.3664 161.792 193.792 205.1584-16.128 22.6816-30.5152 46.6432-40.9088 72.5504-15.1552 35.4304-9.5744 75.4176-8.192 112.7424 13.312 109.7216 127.6416 192.9728 236.1856 176.8448 102.2976-6.3488 195.1744-97.4336 193.536-201.8304 7.168-59.1872-18.0224-114.3296-51.4048-161.28 87.5008-40.6528 155.4432-116.5824 193.7408-204.3904 12.6976 20.7872 25.7536 41.4208 36.352 63.3856 61.3376 115.8656 63.744 261.7344 5.2736 379.1872-74.1376 164.4032-258.6112 272.3328-438.4256 253.184m10.24-184.2176c-93.44-14.7456-162.0992-122.4704-125.44-212.6336 24.5248-67.8912 96.3584-118.784 169.3184-108.9024 89.6512 6.9632 163.1744 99.5328 145.5104 188.6208-13.5168 85.76-103.4752 150.3744-189.3888 132.9152m-136.1408-375.296c-70.2976-43.1616-121.6-112.384-148.992-189.6448 55.9104-44.9536 114.8928-90.112 185.5488-108.4928 94.1056-32.1536 198.3488-23.0912 290.5088 11.3152 55.7568 22.1184 103.5264 59.3408 150.3232 96.0512-25.6512 80.9472-81.7664 151.04-154.8288 194.304-19.6608 10.1888-42.3424 26.5728-65.024 14.2336-59.392-23.9104-126.0544-21.1456-185.7536 0.1024-25.344 11.4688-50.7904-5.0176-71.7824-17.8688z"  horiz-adv-x="1024" />

    
    <glyph glyph-name="fukuan1" unicode="&#59030;" d="M253.1072-115.42528c17.96096 19.1488 30.8992 33.60256 44.6208 47.3088 90.68032 90.14272 182.08256 179.456 271.86688 270.22336 20.56192 21.09952 42.43968 45.11744 51.46624 71.86944 6.70208 19.58912 0.70656 52.65408-13.15328 67.38944-13.6192 14.74048-45.51168 21.72416-66.97984 18.13504-22.58432-3.80416-44.95872-21.38624-62.86336-37.77536-46.21312-42.34752-89.98912-87.17824-134.6816-131.10272-10.76224-10.51136-21.39648-21.23776-32.30208-31.33952-13.70624-12.87168-30.8992-23.79776-44.7488-5.39136-5.38624 7.18336-0.2816 31.74912 7.89504 37.4272 71.81312 50.64704 79.08352 122.4448 70.20544 199.72096-4.25984 37.77536 16.64512 79.2832-16.63488 112.70656-27.6224-23.7312-56.51456-46.28992-82.51904-71.74656-39.3728-38.52288-75.44832-80.39424-115.30752-118.43584-33.35168-31.62112-47.3344-67.9424-46.78656-113.32608 1.12128-87.15776-0.42496-174.40256-1.95072-261.72416-0.35328-20.95616 7.75168-54.16448-21.53984-55.81824-38.4-1.86368-26.8544 34.8672-27.06944 56.86784-0.6912 97.13152 1.67936 194.47808 0.98816 291.60448-0.35328 42.82368 14.8224 75.82208 45.24544 106.25536 74.33216 74.45504 145.30048 152.20736 219.98592 226.304 34.67776 34.45248 51.18464 72.08448 47.26272 120.38144-2.304 27.1872-1.67936 54.8608 0.28672 82.18624 5.58592 77.06112 47.26272 121.27232 123.76064 122.73152 136.00768 2.48832 272.16384 2.48832 408.16128-0.07168 76.07296-1.4592 120.62208-47.04256 121.1136-124.11904 1.7408-231.82336 1.88416-463.72352 0.4096-695.48032-0.4096-76.98944-49.28512-129.16736-126.69952-129.85344-145.8688-1.38752-291.93728 1.72544-437.80608 6.784-34.26304 1.2288-57.61536-8.50944-80.128-30.65856-24.7552-24.41728-49.16224-52.09088-102.09792-31.0528zM782.36672 410.20928c0 114.70848 0.28672 229.27872 0 343.90528-0.13824 75.41248-7.13216 83.64032-79.91808 85.09952-67.90144 1.5104-135.99744 1.72544-204.03712-0.21504-78.25408-2.20672-98.31936-22.9632-99.03104-99.28192-0.90624-99.7632-1.81248-199.43936-0.12288-299.13088 0.4096-28.02176 9.71264-55.83872 14.88896-83.7888 23.1424 12.99968 46.57664 25.6 69.37088 39.168 49.6384 29.52704 116.92032 27.46368 156.27776-5.47328 39.22944-32.80384 53.1456-90.91072 29.5168-143.48288-10.92096-24.35072-28.53888-46.90944-47.27808-66.4832-42.99264-45.52704-89.22624-87.936-132.21888-133.51936-10.56256-11.07456-13.57312-29.47072-20.08576-44.48768 13.8496-4.07552 27.78112-11.20256 41.68192-11.62752 65.52576-1.24416 131.11296-1.5872 196.50048-0.4096 63.7696 1.23904 73.344 10.5216 74.1888 75.81696 1.18784 114.56512 0.26624 229.3504 0.26624 343.9104z m53.36064 4.84864h0.28672c0-29.824-0.14336-59.5712 0-89.38496 0-91.9552-0.28672-183.82848 0.42496-275.84 0.26624-25.67168 4.608-51.60448 36.98176-56.10496 32.24576-4.5568 54.05696 14.59712 64.61952 40.96 8.02816 19.85536 8.31488 43.65312 8.45312 65.50528 0.55296 211.2256 0.55296 422.5024 0.128 633.6512-0.128 19.64544-0.4096 40.26368-6.00064 58.8032-9.30304 29.7472-33.50016 43.09504-64.18944 40.67328-32.38912-2.48832-39.44448-25.94816-39.99744-53.06368a1535.73376 1535.73376 0 0 1-0.56832-37.29408c-0.13824-109.23008-0.13824-218.54208-0.13824-327.90528z"  horiz-adv-x="1032" />

    
    <glyph glyph-name="sousuo2" unicode="&#58887;" d="M750.88 99.872l45.248 45.248 180.992-181.024-45.216-45.216-181.024 180.992zM448 128c176.448 0 320 143.552 320 320S624.448 768 448 768 128 624.448 128 448s143.552-320 320-320m0-64C235.936 64 63.968 235.936 63.968 448S235.936 832.032 448 832.032 832 660.064 832 448s-171.936-384-384-384z"  horiz-adv-x="1024" />

    
    <glyph glyph-name="jiantou" unicode="&#58968;" d="M767.707 376.55L308.066 824.522l-52.012-50.732L663.628 376.58 256.086-20.63l51.975-50.733z"  horiz-adv-x="1024" />

    
    <glyph glyph-name="xiaoxi1" unicode="&#58956;" d="M908.50304 139.01312l-0.14848 0.53248c-0.91648 4.1472-2.88256 10.32704-7.05024 16.17408l-0.29696 0.45568c-6.38464 11.3152-15.1808 21.1456-26.14272 29.23008l-0.68608 0.49152-0.47616 0.70144c-29.68576 42.33728-40.10496 98.95424-41.89696 109.87008l-0.06656 0.83968V509.11744c0 129.92-85.22752 246.54848-212.08576 290.21184l-3.05664 1.05472-0.39424 3.2C609.7152 856.04864 564.9152 895.616 511.99488 895.616c-52.91008 0-97.71008-39.56736-104.20736-92.02688l-0.39424-3.2-3.05664-1.05472C277.48352 755.6864 192.256 639.05792 192.256 509.11744l-0.06656-212.66944c-1.78176-10.9056-12.14464-67.456-41.89184-109.8496l-0.4864-0.70144-0.68096-0.49152c-10.92096-8.04352-19.70176-17.85344-26.10688-29.12768l-0.29184-0.4608c-4.23424-5.9136-6.2208-12.16512-7.13216-16.36352l-0.14848-0.54272c-3.36896-10.07104-5.01248-19.42528-5.01248-28.57984 0-52.25984 42.5216-94.77632 94.78656-94.77632h165.89824l0.1024-5.08416c1.44384-76.1344 64.5888-138.08128 140.76416-138.08128 76.1856 0 139.33568 61.94688 140.76416 138.08128l0.1024 5.08416h165.90848c52.25472 0 94.77632 42.51648 94.77632 94.77632 0.01024 9.18528-1.64864 18.57024-5.03808 28.68224z m-283.96544-125.82912c0-62.05952-50.4832-112.54272-112.5376-112.54272-62.05952 0-112.5376 50.4832-112.5376 112.54272v5.16608h225.08032v-5.16608z m194.23744 30.6176H205.2352c-36.6848 0-66.52928 29.83936-66.52928 66.52416 0 6.68672 1.31072 13.37856 4.23936 21.62688 0.23552 1.7664 1.03936 5.64224 3.61472 8.45312 5.16096 9.9584 12.95872 18.33984 23.20384 24.91904 39.07072 52.02432 49.97632 124.01152 50.74432 129.41312v214.3744c0 126.82752 88.40192 237.30688 215.59296 270.30016a75.4688 75.4688 0 0 0-0.86016 11.19232c0 42.32704 34.432 76.75392 76.7488 76.75392 42.32704 0 76.75904-34.432 76.75904-76.75392 0-3.65568-0.29184-7.40352-0.86016-11.19232 127.19104-32.9984 215.59296-143.47264 215.59296-270.30016v-214.3744c0.768-5.40672 11.7248-77.45536 50.73408-129.42336 10.26048-6.5792 18.05824-14.96064 23.21408-24.92928 2.54464-2.79552 3.36384-6.67136 3.6096-8.41728 2.93888-8.2432 4.24448-14.94528 4.24448-21.64736 0.01024-36.67968-29.82912-66.51904-66.5088-66.51904z"  horiz-adv-x="1024" />

    
    <glyph glyph-name="gouwuchekong" unicode="&#58888;" d="M332.8 105.472q19.456 0 36.864-7.168t30.208-19.968 20.48-30.208 7.68-36.864-7.68-36.864-20.48-30.208-30.208-20.48-36.864-7.68q-20.48 0-37.888 7.68t-30.208 20.48-20.48 30.208-7.68 36.864 7.68 36.864 20.48 30.208 30.208 19.968 37.888 7.168zM758.784 103.424q19.456 0 37.376-7.168t30.72-19.968 20.48-30.208 7.68-36.864-7.68-36.864-20.48-30.208-30.72-20.48-37.376-7.68-36.864 7.68-30.208 20.48-20.48 30.208-7.68 36.864 7.68 36.864 20.48 30.208 30.208 19.968 36.864 7.168zM930.816 685.056q28.672 0 44.544-7.68t22.528-18.944 6.144-24.064-3.584-22.016-13.312-37.888-22.016-62.976-23.552-68.096-18.944-53.248q-13.312-40.96-33.28-56.832t-49.664-15.872h-537.6l14.336-92.16h517.12q49.152 0 49.152-41.984 0-20.48-9.728-35.84t-38.4-14.336h-536.576q-20.48 0-34.304 9.216t-23.040 24.064-14.848 32.256-8.704 32.768q-1.024 6.144-5.632 29.696t-11.264 58.88-14.848 78.848-16.384 87.552q-19.456 103.424-44.032 230.4h-76.8q-15.36 0-25.6 7.68t-16.896 18.432-9.216 23.040-2.56 22.528q0 20.48 13.824 33.792t37.376 12.288h103.424q20.48 0 32.768-6.144t19.456-15.36 10.24-18.944 5.12-16.896q2.048-8.192 4.096-23.040t4.096-30.208q3.072-18.432 6.144-38.912h700.416zM892.928 593.92l-641.024 2.048 35.84-185.344 535.552-1.024z"  horiz-adv-x="1028" />

    
    <glyph glyph-name="fukuan2" unicode="&#58891;" d="M991.318 380.309l-60.503-111.527c-16.151-30.194-26.038-50.322-29.666-60.269h-0.995c-10.649 24.224-40.726 81.51-90.17 171.795h-56.875l105.851-181.801h-86.834v-40.199h101.755v-55.354h-101.755v-40.726h101.755v-80.574h50.498v80.574h98.127v40.726h-98.127v55.354h98.127v40.199h-84.259l106.904 181.801-53.833 0.001zM1192.753 305.412h0.937l0 387.009c0 39.146-35.284 70.978-78.643 70.978h-991.455c-43.359 0-78.643-31.831-78.643-70.978v-698.887c0-39.146 35.284-70.978 78.643-70.978h603.861c50.673-32.885 109.831-50.555 171.679-50.555 84.435 0 163.779 32.826 223.523 92.568 59.685 59.685 92.568 139.028 92.568 223.463-0.001 40.903-7.724 80.574-22.47 117.38zM103.463 674.165c0 16.91 8.952 30.719 30.135 30.719h963.134c21.182 0 38.444-13.809 38.444-30.719v-102.283h-1031.712c0 0 0 102.283 0 102.283zM141.847-18.345c-21.182 0-38.385 20.129-38.385 37.039l0 512.111h1031.712v-133.353c-7.607 9.128-7.841 9.421-12.522 14.102-60.269 59.099-139.086 92.568-223.523 92.568-84.436 0-163.779-32.885-223.463-92.568-59.742-59.685-92.627-139.086-92.627-223.523s25.512-152.427 79.871-204.564c0.644-0.585 1.814-1.814 1.814-1.814l-522.877 0.001zM899.13-87.799c-152.077 0-275.833 123.756-275.833 275.833 0 152.134 123.757 275.891 275.833 275.891 152.134 0 275.833-123.757 275.833-275.891 0.001-152.078-123.697-275.833-275.833-275.833zM879.207 151.13h11.586v36.844h-9.499v5.254c4.965 0.935 8.492 2.16 11.513 4.029h6.261v-46.129h10.363v-6.837h-30.224v6.835z"  horiz-adv-x="1216" />

    
    <glyph glyph-name="shuaxin2" unicode="&#58931;" d="M258.574175 385.700997c0 23.813953-20.41196 44.225914-44.225914 44.225913h-170.099667c-23.813953 0-44.225914-20.41196-44.225914-44.225913 0-23.813953 20.41196-44.225914 44.225914-44.225914h170.099667c27.215947 0 44.225914 20.41196 44.225914 44.225914zM983.19876 426.524917h-170.099668c-23.813953 0-44.225914-20.41196-44.225914-44.225914 0-23.813953 20.41196-44.225914 44.225914-44.225913h170.099668c23.813953 0 44.225914 20.41196 44.225913 44.225913-3.401993 27.215947-20.41196 44.225914-44.225913 44.225914zM513.723677 130.551495c-23.813953 0-44.225914-20.41196-44.225914-44.225914v-170.099667c0-23.813953 20.41196-44.225914 44.225914-44.225914 23.813953 0 44.225914 20.41196 44.225913 44.225914v170.099667c0 23.813953-20.41196 44.225914-44.225913 44.225914zM513.723677 896c-23.813953 0-44.225914-20.41196-44.225914-44.225914v-170.099667c0-23.813953 20.41196-44.225914 44.225914-44.225914 23.813953 0 44.225914 20.41196 44.225913 44.225914v170.099667c0 23.813953-20.41196 44.225914-44.225913 44.225914zM272.182148 205.395349l-119.069767-119.069768c-17.009967-17.009967-17.009967-44.225914 0-61.23588 10.20598-10.20598 20.41196-13.607973 30.61794-13.607973s23.813953 3.401993 30.61794 13.607973L333.418029 144.159468c17.009967 17.009967 17.009967 44.225914 0 61.235881s-44.225914 17.009967-61.235881 0zM724.647265 552.398671c10.20598 0 23.813953 3.401993 30.61794 13.607974l119.069767 119.069767c17.009967 17.009967 17.009967 44.225914 0 61.23588s-44.225914 17.009967-61.23588 0l-119.069768-119.069767c-17.009967-17.009967-17.009967-44.225914 0-61.23588 10.20598-10.20598 20.41196-13.607973 30.617941-13.607974zM755.265205 205.395349c-17.009967 17.009967-44.225914 17.009967-61.235881 0s-17.009967-44.225914 0-61.235881l119.069768-119.069767c10.20598-10.20598 20.41196-13.607973 30.61794-13.607973 10.20598 0 23.813953 3.401993 30.61794 13.607973 17.009967 17.009967 17.009967 44.225914 0 61.23588L755.265205 205.395349zM214.348261 746.312292c-17.009967 17.009967-44.225914 17.009967-61.23588 0s-17.009967-44.225914 0-61.23588l119.069767-119.069767c10.20598-10.20598 20.41196-13.607973 30.617941-13.607974s23.813953 3.401993 30.61794 13.607974c17.009967 17.009967 17.009967 44.225914 0 61.23588L214.348261 746.312292z"  horiz-adv-x="1030" />

    
    <glyph glyph-name="gouwuchekong1" unicode="&#58892;" d="M332.8 105.472q19.456 0 36.864-7.168t30.208-19.968 20.48-30.208 7.68-36.864-7.68-36.864-20.48-30.208-30.208-20.48-36.864-7.68q-20.48 0-37.888 7.68t-30.208 20.48-20.48 30.208-7.68 36.864 7.68 36.864 20.48 30.208 30.208 19.968 37.888 7.168zM758.784 103.424q19.456 0 37.376-7.168t30.72-19.968 20.48-30.208 7.68-36.864-7.68-36.864-20.48-30.208-30.72-20.48-37.376-7.68-36.864 7.68-30.208 20.48-20.48 30.208-7.68 36.864 7.68 36.864 20.48 30.208 30.208 19.968 36.864 7.168zM930.816 685.056q28.672 0 44.544-7.68t22.528-18.944 6.144-24.064-3.584-22.016-13.312-37.888-22.016-62.976-23.552-68.096-18.944-53.248q-13.312-40.96-33.28-56.832t-49.664-15.872h-537.6l14.336-92.16h517.12q49.152 0 49.152-41.984 0-20.48-9.728-35.84t-38.4-14.336h-536.576q-20.48 0-34.304 9.216t-23.040 24.064-14.848 32.256-8.704 32.768q-1.024 6.144-5.632 29.696t-11.264 58.88-14.848 78.848-16.384 87.552q-19.456 103.424-44.032 230.4h-76.8q-15.36 0-25.6 7.68t-16.896 18.432-9.216 23.040-2.56 22.528q0 20.48 13.824 33.792t37.376 12.288h103.424q20.48 0 32.768-6.144t19.456-15.36 10.24-18.944 5.12-16.896q2.048-8.192 4.096-23.040t4.096-30.208q3.072-18.432 6.144-38.912h700.416zM892.928 593.92l-641.024 2.048 35.84-185.344 535.552-1.024z"  horiz-adv-x="1028" />

    
    <glyph glyph-name="tongzhi1" unicode="&#58905;" d="M473.6 180.148148h172.468148c0.379259 0 0.758519-0.18963 1.327408-0.189629 0.379259 0 0.758519 0.18963 1.327407 0.189629 21.238519 0 52.811852-8.722963 179.674074-111.502222 19.247407-15.54963 38.020741-31.194074 54.992593-45.416296 0 0-0.568889 113.019259-0.568889 114.82074 0 17.351111 14.032593 31.383704 31.383703 31.383704 16.592593 0 30.056296-12.894815 31.194075-29.202963v-177.872592c0-14.980741-8.817778-28.634074-22.565926-34.702223-5.025185-2.180741-10.334815-3.318519-15.73926-3.318518-9.197037 0-18.299259 3.318519-25.315555 9.576296-0.568889 0.379259-50.251852 44.468148-105.434074 89.6-95.099259 77.558519-124.681481 91.211852-130.93926 93.487407H415.383704c-17.351111 0-31.383704 14.032593-31.383704 31.383704V648.248889c0 17.351111 14.032593 31.383704 31.383704 31.383704h68.551111c0.758519 0 1.517037 0.18963 2.180741 0.189629h134.257777c6.257778 1.991111 37.451852 15.36 144.782223 94.151111 61.724444 45.416296 117.475556 89.78963 118.044444 90.074074 11.472593 9.007407 27.117037 10.903704 40.296296 4.456297 13.084444-6.257778 21.617778-19.721481 21.617778-34.322963 0 0 1.517037-461.842963 1.517037-465.161482 0-17.540741-14.222222-31.573333-31.573333-31.573333-17.540741 0-31.573333 14.222222-31.573334 31.573333 0 1.137778-0.568889 409.78963-0.568888 409.78963-20.859259-16.023704-45.037037-34.133333-69.783704-52.432593C674.133333 624.64 642.180741 616.106667 621.511111 616.106667h-155.496296c-18.10963 0-19.721481-9.386667-19.721482-24.367408v-383.525926c0.284444-21.997037 5.499259-28.065185 27.306667-28.065185zM1099.377778 164.219259c-17.351111 0-31.383704 14.032593-31.383704 31.383704 0 11.472593 6.068148 21.428148 15.17037 26.927407 62.198519 33.754074 104.485926 99.934815 104.485926 175.786667 0 74.619259-40.77037 139.567407-101.357037 173.985185-9.386667 5.30963-15.739259 15.834074-15.739259 27.496297 0 17.351111 14.032593 31.383704 31.383704 31.383703 5.878519 0 14.222222-3.697778 17.73037-5.499259 78.317037-45.605926 130.939259-130.180741 130.939259-227.365926 0-98.797037-54.518519-184.888889-135.205926-229.925926 0.094815 0.284444-8.628148-4.171852-16.023703-4.171852zM1213.345185 10.619259c-6.068148-3.508148-11.472593-6.068148-18.488889-6.068148-17.351111 0-31.383704 14.032593-31.383703 31.383704 0 12.705185 8.722963 23.04 18.868148 28.634074 114.820741 67.034074 192.094815 191.525926 192.094815 334.032592 0 142.791111-77.368889 267.188148-192.284445 334.222223-10.524444 5.688889-17.92 15.739259-17.92 28.254815 0 17.351111 14.032593 31.383704 31.383704 31.383703 7.016296 0 12.894815-2.74963 18.678518-6.257778C1347.223704 708.266667 1436.444444 564.053333 1436.444444 398.791111c0-165.831111-89.78963-310.234074-223.099259-388.171852zM1214.293333 785.825185c-5.878519 3.508148-11.662222 6.257778-18.678518 6.257778-17.351111 0-31.383704-14.032593-31.383704-31.383704 0-12.325926 7.395556-22.565926 17.92-28.254815 114.820741-67.034074 192.284444-191.525926 192.284445-334.222222 0-142.601481-77.179259-266.998519-192.094815-334.032592-10.145185-5.499259-18.868148-15.834074-18.868148-28.634074 0-17.351111 14.032593-31.383704 31.383703-31.383704 7.016296 0 12.515556 2.56 18.488889 6.068148 133.30963 77.748148 223.099259 222.340741 223.099259 387.792593 0 165.641481-89.220741 309.854815-222.151111 387.792592zM1250.702222 398.411852c0 97.09037-52.622222 181.76-130.939259 227.365926-3.508148 1.801481-12.041481 5.499259-17.73037 5.499259-17.351111 0-31.383704-14.032593-31.383704-31.383704 0-11.662222 6.257778-21.997037 15.739259-27.496296 60.586667-34.322963 101.357037-99.365926 101.357037-173.985185 0-75.851852-42.287407-141.842963-104.485926-175.786667-9.007407-5.499259-15.17037-15.54963-15.17037-26.927407 0-17.351111 14.032593-31.383704 31.383704-31.383704 7.395556 0 16.023704 4.266667 16.023703 4.266667 80.497778 44.942222 135.205926 131.034074 135.205926 229.831111zM466.394074 616.296296h155.496296c20.66963 0 52.622222 8.533333 191.525926 110.26963 24.746667 18.10963 48.924444 36.408889 69.783704 52.432593 0 0 0.568889-408.651852 0.568889-409.78963 0-17.540741 14.222222-31.573333 31.573333-31.573333 17.540741 0 31.573333 14.222222 31.573334 31.573333 0 3.318519-1.517037 465.161481-1.517037 465.161481 0 14.601481-8.343704 27.875556-21.617778 34.322963-13.084444 6.257778-28.823704 4.645926-40.296297-4.456296-0.568889-0.379259-56.32-44.847407-118.044444-90.074074-107.33037-79.075556-138.524444-92.16-144.782222-94.151111H486.494815c-0.758519 0-1.517037-0.18963-2.180741-0.18963h-68.551111c-17.351111 0-31.383704-14.032593-31.383704-31.383703v-499.863704c0-17.351111 14.032593-31.383704 31.383704-31.383704h230.115556c6.257778-2.180741 35.65037-15.834074 130.939259-93.487407 55.371852-45.037037 105.054815-89.220741 105.434074-89.6 7.205926-6.257778 16.023704-9.576296 25.315555-9.576297 5.30963 0 10.524444 1.137778 15.73926 3.318519 13.653333 6.068148 22.565926 19.721481 22.565926 34.702222V138.145185v2.275556c-1.137778 16.213333-14.791111 29.202963-31.194074 29.202963-17.351111 0-31.383704-14.032593-31.383704-31.383704 0-1.801481 0.568889-114.820741 0.568889-114.820741-16.782222 14.222222-35.65037 29.961481-54.992593 45.416297C701.62963 171.614815 670.245926 180.337778 649.007407 180.337778c-0.379259 0-0.758519-0.18963-1.327407-0.18963-0.379259 0-0.758519 0.18963-1.327407 0.18963H473.979259c-21.997037 0-26.927407 6.257778-26.927407 28.254815V591.928889c-0.474074 14.980741 1.422222 24.367407 19.342222 24.367407z"  horiz-adv-x="1820" />

    
    <glyph glyph-name="wode1" unicode="&#58893;" d="M652.8 342.4c80 48 134.4 136 134.4 236.8 0 152-123.2 275.2-275.2 275.2s-275.2-123.2-275.2-275.2c0-100.8 54.4-188.8 134.4-236.8-155.2-57.6-267.2-208-267.2-382.4 0-17.6 14.4-32 32-32s32 14.4 32 32c0 188.8 153.6 342.4 342.4 344h3.2c188.8-1.6 342.4-155.2 342.4-344 0-17.6 14.4-32 32-32s32 14.4 32 32c0 176-110.4 324.8-267.2 382.4z m-352 236.8c0 116.8 94.4 211.2 211.2 211.2 116.8 0 211.2-94.4 211.2-211.2 0-116.8-94.4-211.2-209.6-211.2H512h-1.6c-115.2 1.6-209.6 96-209.6 211.2z"  horiz-adv-x="1024" />

    
    <glyph glyph-name="dizhi1" unicode="&#59017;" d="M500.363636 356.072727c-58.181818 0-102.4 46.545455-102.4 104.727273s46.545455 104.727273 102.4 104.727273 102.4-46.545455 102.4-104.727273-46.545455-104.727273-102.4-104.727273z m0 539.927273C260.654545 896 65.163636 700.509091 65.163636 458.472727c0-81.454545 23.272727-158.254545 62.836364-225.745454 2.327273-6.981818 6.981818-13.963636 11.636364-20.945455l2.327272-2.327273c27.927273-41.890909 318.836364-323.490909 318.836364-323.490909 9.309091-9.309091 20.945455-13.963636 34.909091-13.963636 4.654545 0 9.309091 0 13.963636 2.327273h4.654546c11.636364 0 23.272727 4.654545 32.581818 13.963636 0 0 283.927273 283.927273 309.527273 323.490909l2.327272 4.654546c6.981818 6.981818 9.309091 13.963636 11.636364 20.945454 39.563636 65.163636 62.836364 141.963636 62.836364 225.745455C935.563636 700.509091 740.072727 896 500.363636 896z m0-598.109091c88.436364 0 160.581818 72.145455 160.581819 162.909091 0 88.436364-72.145455 162.909091-160.581819 162.909091-88.436364 0-160.581818-72.145455-160.581818-162.909091s72.145455-162.909091 160.581818-162.909091z m0 539.927273c51.2 0 100.072727-9.309091 146.618182-30.254546 44.218182-18.618182 86.109091-46.545455 118.690909-81.454545 34.909091-34.909091 62.836364-74.472727 81.454546-121.018182 18.618182-46.545455 30.254545-95.418182 30.254545-146.618182 0-69.818182-18.618182-137.309091-53.527273-195.490909-2.327273-4.654545-4.654545-6.981818-4.654545-11.636363H814.545455c-2.327273-2.327273-4.654545-4.654545-4.654546-6.981819-4.654545-4.654545-25.6-32.581818-160.581818-169.890909-62.836364-65.163636-123.345455-125.672727-139.636364-141.963636h-11.636363c-16.290909 16.290909-79.127273 76.8-144.290909 141.963636-137.309091 137.309091-160.581818 165.236364-165.236364 169.890909l-6.981818 6.981819-2.327273 2.327272c-2.327273 4.654545-2.327273 6.981818-4.654545 11.636364-34.909091 58.181818-53.527273 125.672727-53.527273 195.490909 0 51.2 9.309091 100.072727 30.254545 146.618182 18.618182 44.218182 46.545455 86.109091 81.454546 121.018182s74.472727 62.836364 118.690909 81.454545c48.872727 16.290909 97.745455 27.927273 148.945454 27.927273z"  horiz-adv-x="1024" />

    
    <glyph glyph-name="lianxi" unicode="&#59010;" d="M512-49.362c-239.339 0-433.362 194.023-433.362 433.362s194.023 433.362 433.362 433.362 433.362-194.023 433.362-433.362-194.023-433.362-433.362-433.362zM512 774.026c-215.405 0-390.026-174.621-390.026-390.026s174.621-390.026 390.026-390.026 390.026 174.621 390.026 390.026-174.621 390.026-390.026 390.026zM704.846 179.453c-24.799-20.144-56.336-32.881-90.785-34.445-34.147 5.925-72.211 22.91-103.165 48.256-81.311 50.131-157.747 130.444-211.546 225.282l100.951-134.869c-76.317 77.677-133.94 173.973-165.422 281.438 53.952-136.961 39.661-97.394 37.594-54.618 5.025 18.834 19.478 49.517 41.239 73.432 1.952 3.532 30.012 38.419 54.605 38.419 15.606-2.264 28.816-10.989 37.036-23.325 32.654-34.443 58.864-79.192 73.879-128.804-11.362 45.676 13.015-9.59 24.998-69.335-35.408 107.424-30.632 93.354-30.086 78.204-0.678-7.536-7.391-18.008-17.225-23.666-14.339-9.517-31.544-16.237-50.070-18.838 23.007 5.269 16.248 2.235 12.52 0.069 9.386-22.925 23.481-42.234 41.187-57.462 14.162-28.932 62.15-72.463 118.080-103.382-51.734 31.098 5.58-3.188 69.294-22.908-96.216 42.149-72.797 32.101-47.389 27.991-33.375 14.053-30.406 20.77-28.717 24.669v0.217c8.326 20.287 20.211 37.55 35.025 51.788-17.363-18.718-6.842-12.139 5.233-11.912 15.035-1.526 28.801-7.142 40.202-15.73 46.987-24.649 89.888-61.097 123.956-104.773-43.372 52.229-9.111 14.569 15.418-29.275-50.209 70.651-42.143 57.004-40.788 41.435-0.52-21.674-35.384-49.843-46.024-57.859zM699.169 244.241c-31.136 29.189-69.091 51.498-111.194 64.268 34.092-6.47-17.56 16.38-73.394 27.717 98.366-33.617 81.182-28.013 62.974-25.694 37.283-14.072 35.528-18.188 33.838-22.089l-0.26-0.433v-0.217c-9.142-21.596-21.669-40.043-37.119-55.581l9.73 6.611-33.044 11.268c-29.266 11.45-53.983 28.957-73.572 51.106-29.389 13.83-77.946 67.502-112.413 130.030l84.468-110.065-0.411 0.434c-47.514 49.071-83.819 109.291-104.598 176.338 40.005-94.607 27.79-65.86 23.012-34.663l-0.341-7.549 29.946 17.985c16.587 9.78 36.057 16.676 56.833 19.442-33.172-8.174-28.968-6.224-25.587-4.491-10.407 22.837-23.947 42.38-40.35 59.106 8.925-0.525-25.304 39.306-66.214 70.908 51.738-43.519 18.419-12.961-20.383 9.053 69.093-54.346 67.186-52.611 65.713-51.094-19.015-15.468-33.736-35.507-42.57-58.467 3.076 15.092-6.507-7.38-8.139-32.027 0.914 2.521 3.080-20.447 32.117-67.467 56.656-88.787 132.312-160.677 221.602-211.317l-127.693 95.61c72.682-71.315 162.753-125.167 263.255-154.6-111.644 42.793-88.611 40.627-82.675 40.627 24.733 3.716 46.346 14.967 62.937 31.302 11.816 7.343 26.376 25.367 35.421 46.328-23.6-19.907-32.309-13.632-42.131-9.474l20.24-12.904z"  horiz-adv-x="1024" />

    
    <glyph glyph-name="dizhi2" unicode="&#58952;" d="M529.216 880.576c-201.28 0-364.608-166.336-364.608-371.968 0-78.592 24.064-151.68 64.96-211.712 1.984-3.456 3.776-6.848 6.208-9.92l248.32-319.04c12.416-16.704 28.8-24.704 45.184-24.704s32.704 8 45.12 24.704l248.384 319.04c2.304 3.072 4.16 6.4 5.952 9.536 41.024 60.224 65.152 133.184 65.152 212.032C893.76 714.24 730.624 880.576 529.216 880.576z m239.616-541.44l-1.856-2.816-1.6-2.88-1.216-2.048L529.216 29.44 294.272 331.392l-1.472 2.56-1.6 2.944-1.728 2.304c-34.048 49.92-51.968 108.672-51.968 169.408 0 164.288 130.752 297.6 291.648 297.6S820.8 672.896 820.8 508.608c0-60.672-17.92-119.552-51.968-169.472zM529.216 657.408c-80.576 0-145.856-66.688-145.856-148.864 0-82.048 65.28-148.8 145.856-148.8s145.856 66.752 145.856 148.8c0 82.176-65.344 148.864-145.856 148.864z m0-223.296c-40.192 0-72.96 33.344-72.96 74.432 0 41.152 32.704 74.368 72.96 74.368s72.96-33.216 72.96-74.368c-0.064-41.024-32.768-74.432-72.96-74.432z m195.52-406.976"  horiz-adv-x="1024" />

    
    <glyph glyph-name="shouye" unicode="&#58991;" d="M512 714.616L114.552 363.04 77.448 404.96 512 789.384l434.552-384.416-37.104-41.936L512 714.616zM444 244v-256h-280V368h56v-324h168v256h248v-256h168V368h56v-380h-280v256h-136z m354.856 325.272V683.424H678.544v56h176.312v-170.16h-56z"  horiz-adv-x="1024" />

    
    <glyph glyph-name="tongzhi2" unicode="&#59256;" d="M794.544546 61.113889c-8.907909-8.191181-22.525747-7.372063-30.512149 1.740626-3.686031 4.19798-5.529047 9.522248-5.529047 14.846515 0 6.143386 2.457354 12.184382 7.167283 16.587141 85.59784 78.737726 134.642536 191.571243 134.642536 309.524248 0 115.59804-47.508849 226.89571-130.342166 305.428657-8.805519 8.293571-9.317468 22.320968-1.228677 31.331267 8.088791 9.010299 21.706629 9.624638 30.512149 1.228677 91.638836-86.826517 144.267173-210.0014 144.267173-338.090991 0-130.546945-54.368963-255.360064-148.977102-342.59614zM656.830317 198.828117c-9.727027-7.576842-24.061594-6.245775-32.047995 2.969303-3.481252 3.993201-5.221878 8.907909-5.221878 13.720228 0 6.245775 2.764524 12.389161 8.293571 16.689531 54.266573 42.286971 85.290671 104.847115 85.290671 171.40046 0 64.40316-29.488251 125.632237-80.785522 167.816819-9.522248 7.781622-10.546145 21.50185-2.252575 30.512148 8.191181 9.010299 22.628137 10.034197 32.150385 2.150185 61.331467-50.478152 96.553545-123.482052 96.553545-200.479152-0.10239-79.556844-37.167483-154.19898-101.980202-204.779522z m-167.919208-160.137586L287.715228 239.886411h-83.345265c-50.990101 0-92.355564 41.365463-92.355564 92.355565V470.672933c0 50.990101 41.365463 92.355564 92.355564 92.355564H287.715228l201.195881 201.195881c5.221878 4.40276 61.741026 29.693031 61.741026-28.054795v-680.994301c0.10239-25.90461-40.955904-37.269873-61.741026-16.484751z m-7.474453 662.871313L312.391161 523.506049c-4.30037-4.30037-9.931807-6.450555-15.665634-6.552944h-92.457954c-25.49505 0-46.177782-20.682732-46.177782-46.177783v-138.533346c0-25.49505 20.682732-46.177782 46.177782-46.177782h92.457954c5.631437-0.10239 11.262874-2.252575 15.665634-6.552945L481.436656 101.455454c24.778322-25.187881 23.037696-4.607539 23.037697 23.037697V678.524148c0.10239 24.061594-1.331067 41.058294-23.037697 23.037696z"  horiz-adv-x="1024" />

    
    <glyph glyph-name="xiaoxi2" unicode="&#58998;" d="M964.00384 113.64864l-0.18432 0.46592-108.59008 143.42144V431.1296c0 99.26656-33.28512 181.4784-98.90816 244.36736-53.18144 50.94912-115.48672 76.5952-149.62176 87.7312v37.22752c0 51.63008-42.00448 93.63968-93.64992 93.63968-51.6352 0-93.6448-42.00448-93.6448-93.63968v-37.20704c-34.14016-11.11552-96.44032-36.75648-149.63712-87.7056C204.09856 612.64896 170.8032 530.42176 170.8032 431.1296v-173.58336l-104.91392-137.21088-3.62496-6.23616-0.2304-0.47616c-1.40288-3.46624-13.184-34.66752 7.3984-65.41312 21.69344-32.3328 67.33824-48.05632 139.54048-48.05632h131.26656c9.08288-35.38432 29.63456-65.49504 59.59168-87.22432 31.08864-22.53824 70.22592-34.46272 113.19296-34.46272 42.97728 0 82.11968 11.92448 113.21856 34.47296 29.96224 21.72928 50.51392 51.84 59.5968 87.21408h131.2768c72.19712 0 117.85216 15.7184 139.5456 48.06144 20.72576 31.01696 8.77568 61.99808 7.34208 65.4336z m-379.56608-157.43488c-19.7632-12.14464-44.4672-18.56512-71.41376-18.56512s-51.63008 6.42048-71.3984 18.57024c-17.59744 10.8032-30.94016 25.91744-38.8864 43.93472h220.61056c-7.95136-18.01216-21.30432-33.1264-38.912-43.93984zM478.592 800.45568c0 19.00032 15.4624 34.4576 34.4576 34.4576a34.49856 34.49856 0 0 0 34.46272-34.4576v-28.36992l-68.92032 0.26624v28.10368z m-19.06176-87.20896h107.02336c12.05248-2.51904 69.70368-16.21504 123.91424-57.51808 31.03744-23.63904 55.6544-52.24448 73.15456-85.01248 21.51424-40.28928 32.43008-87.25504 32.43008-139.58656v-193.64352l113.42336-148.32128a12.72832 12.72832 0 0 0-2.24256-8.3712c-14.2592-19.90656-72.58624-21.45792-90.12224-21.45792H208.9728c-69.39648 0-86.528 16.42496-90.12224 21.45792a12.69248 12.69248 0 0 0-2.31936 8.33024l112.62976 147.3024 0.81408 1.05984V431.1296c0.00512 226.24256 204.1856 276.72064 229.5552 282.11712z"  horiz-adv-x="1024" />

    
    <glyph glyph-name="shuaxin3" unicode="&#58895;" d="M960.907 152.876h-0.093l-81.25-0.289a434.492 434.492 0 0 1 41.653 87.153c16.01 46.057 24.13 94.351 24.13 143.543 0 58.982-11.558 116.213-34.352 170.105-22.011 52.04-53.517 98.77-93.64 138.895-40.125 40.125-86.857 71.63-138.896 93.641-53.89 22.794-111.123 34.351-170.104 34.351-49.96 0-98.968-8.368-145.663-24.872-13.32-4.708-20.303-19.324-15.595-32.646 4.71-13.322 19.326-20.301 32.646-15.595 41.204 14.563 84.475 21.948 128.612 21.948 103.058 0 199.948-40.133 272.82-113.007C854.05 583.23 894.183 486.34 894.183 383.282c0-43.458-7.164-86.1-21.293-126.742a383.346 383.346 0 0 0-36.016-75.689l-25.499 73.663c-4.622 13.351-19.189 20.425-32.544 15.807-13.352-4.622-20.428-19.192-15.807-32.544l41.141-118.853c1.378-3.98 3.64-7.4 6.489-10.122 4.636-4.67 11.058-7.562 18.153-7.562h0.094l132.096 0.47c14.129 0.05 25.542 11.545 25.492 25.673-0.05 14.1-11.493 25.493-25.581 25.493zM675.533 35.45c-52.353-25.213-108.6-37.996-167.179-37.996-103.058 0-199.949 40.133-272.823 113.007-72.872 72.872-113.005 169.762-113.005 272.82 0 83.81 27.117 164.704 76.924 231.18l33.394-93.504c3.736-10.463 13.586-16.986 24.093-16.986 2.855 0 5.76 0.482 8.603 1.497 13.306 4.753 20.24 19.391 15.488 32.697L235.315 666.16c-4.124 11.547-15.692 18.29-27.377 16.766a25.628 25.628 0 0 1-5.857 0.682h-0.089l-137.135-0.469c-14.129-0.048-25.543-11.54-25.496-25.67 0.049-14.099 11.492-25.495 25.581-25.495h0.09l84.19 0.287C98.727 559.502 71.36 472.863 71.36 383.281c0-58.982 11.557-116.214 34.352-170.105 22.01-52.04 53.515-98.77 93.64-138.895 40.124-40.125 86.855-71.63 138.896-93.64 53.891-22.795 111.123-34.352 170.105-34.352 66.328 0 130.044 14.488 189.377 43.062 12.73 6.13 18.08 21.42 11.95 34.148s-21.417 18.078-34.146 11.95z"  horiz-adv-x="1024" />

    
    <glyph glyph-name="pingjia" unicode="&#59047;" d="M435.2 294.4v-396.8h51.2v396.8zM486.4 243.2c-207.872 0-409.6 258.9696-409.6 467.2 0 38.5536 28.0064 53.1456 62.976 43.3152 17.408-4.9152 18.5344-5.4784 75.4688-34.7648 9.5744-4.9152 17.152-8.704 24.3712-12.1344 42.5984-20.224 67.8912-24.576 77.6192-15.8208 16.384 14.7968 30.6176 33.28 46.4384 58.8288 5.888 9.4208 26.2144 44.3904 30.72 51.7632C423.0144 848.0768 447.8464 870.4 486.4 870.4c35.584 0 64.0512-20.1728 96.5632-59.6992 7.0144-8.5504 14.0288-17.7152 23.552-30.5152-2.304 3.072 17.92-24.4224 23.4496-31.744 18.944-25.1904 34.048-42.8544 49.92-57.7536 8.2944-7.7312 28.7744-4.3008 63.8976 13.824 7.3728 3.7376 15.0528 7.9872 24.8832 13.6192l17.4592 10.0352c6.9632 3.9936 12.0832 6.8608 17.0496 9.5744a194.048 194.048 0 0 0 32.768 14.9504c33.1264 10.5984 60.0576-4.7616 60.0576-42.2912 0-208.2304-201.728-467.2-409.6-467.2z m0 51.2c173.568 0 352.512 226.1504 358.2464 407.1424-6.3488-2.6112-15.2576-7.68-50.5856-27.904a687.104 687.104 0 0 0-26.88-14.6944c-53.1968-27.392-92.0576-33.8944-122.2656-5.632-18.4832 17.3056-35.2256 37.0176-55.8592 64.3584-5.6832 7.5776-26.112 35.328-23.7056 32.0512a706.56 706.56 0 0 1-21.9648 28.4672c-23.552 28.672-40.96 41.0112-56.9856 41.0112-15.1552 0-28.3648-11.8784-48.384-44.4416-4.096-6.656-24.4736-41.6768-30.7712-51.8656-18.176-29.3888-35.1232-51.3536-55.7056-69.888-31.5904-28.5184-72.96-21.3504-133.888 7.5776-7.7824 3.7376-15.8208 7.68-25.8048 12.8512-47.8208 24.576-53.1456 27.2896-63.744 30.3616C132.352 522.4448 312.1664 294.4 486.4 294.4zM462.1312 59.4944c-15.104 61.44 89.088 99.6352 231.936 114.8928 143.8208 15.36 252.6208-1.536 259.1744-67.2768 6.656-66.1504-93.2352-101.6832-233.5232-111.4112-134.656-9.3184-244.224 9.216-257.5872 63.7952z m254.0032-12.6976c108.0832 7.4752 188.1088 35.9424 186.1632 55.1936-1.9456 19.456-91.4432 33.3824-202.752 21.504-54.9376-5.888-107.3152-16.896-144.128-30.4128-30.72-11.264-43.52-21.76-43.5712-21.3504 3.9936-16.2816 98.6112-32.256 204.288-24.9344zM39.7312 59.4944c-15.104 61.44 89.088 99.6352 231.936 114.8928 143.8208 15.36 252.6208-1.536 259.1744-67.2768 6.656-66.1504-93.2352-101.6832-233.5232-111.4112-134.656-9.3184-244.224 9.216-257.5872 63.7952z m49.664 12.2368c4.0448-16.2816 98.6624-32.256 204.3392-24.9344 108.0832 7.4752 188.1088 35.9424 186.1632 55.1936-1.9456 19.456-91.4432 33.3824-202.752 21.504-54.9376-5.888-107.3152-16.896-144.128-30.4128-30.72-11.264-43.52-21.76-43.5712-21.3504z"  horiz-adv-x="1024" />

    
    <glyph glyph-name="kuaidi1" unicode="&#59049;" d="M1232.337079 170.513497l-0.015482 1.61871V372.391218c0 15.820696-4.632503 31.297351-13.395211 44.764811L1084.845257 618.306105c-15.445692 22.75999-40.66385 36.14488-67.743266 36.14488h-135.758325v67.041424c0 44.921349-36.545687 81.467036-81.468757 81.467037H298.288151c-44.92307 0-81.484238-36.547407-81.484239-81.467037v-367.844509c0-44.92307 36.561169-81.468757 81.484239-81.468757h2.029838V171.604105c0-44.936831 36.561169-81.482518 81.491119-81.482518h29.367285c7.322899-69.65097 66.372266-124.054072 137.910297-124.054072 71.558674 0 130.608041 54.490832 137.887935 124.155564h158.90192c7.285055-69.695696 66.351623-124.155564 137.910298-124.155564 71.560394 0 130.625243 54.490832 137.879334 124.155564h29.276114c42.170747 0 77.854613 32.919502 81.226208 74.956072l0.215025 2.654272-0.046445 2.680074zM272.865288 353.6479V721.490689c0 14.012764 11.403218 25.414261 25.422863 25.414261h501.586758c13.985241 0 25.40394-11.403218 25.40394-25.414261v-367.84451c0-14.012764-11.418699-25.415981-25.40394-25.415981H298.288151c-14.021365-0.00172-25.422862 11.401497-25.422863 25.417702z m276.219682-331.531051c-45.561265 0-82.631613 37.063468-82.631613 82.60581 0 45.550943 37.068628 82.629893 82.631613 82.629893 45.538902 0 82.595489-37.07895 82.595489-82.629893 0-45.542342-37.056587-82.60581-82.595489-82.60581z m434.698432 0c-45.568145 0-82.631613 37.063468-82.631613 82.60581 0 45.550943 37.063468 82.629893 82.631613 82.629893 45.538902 0 82.60409-37.07895 82.60409-82.629893 0-45.542342-37.065188-82.60581-82.60409-82.60581z m167.155449 124.155564h-32.172935c-18.215217 59.367604-72.874629 100.303246-134.982514 100.303246-62.192175 0-116.882551-40.935642-135.099487-100.303246h-164.623311c-18.223818 59.367604-72.878069 100.303246-134.997996 100.303246-62.205937 0-116.889432-40.963165-135.11153-100.401297h-32.14541c-14.017924 0-25.429743 11.416979-25.429743 25.429743v92.269904h426.704654c59.709924 0 108.319386 48.595701 108.319386 108.305624V598.39821h125.703746c8.77819 0 16.520818-4.446722 21.084513-11.188193l133.735368-200.618533c2.840053-4.34351 4.333188-9.251245 4.333188-14.200266v-200.6753l0.030964-2.04876c-1.037282-13.051171-12.02421-23.394744-25.348893-23.394745zM1018.278609 562.452873c-7.660059 11.516751-20.568453 18.431962-34.495207 18.431963h-33.435562c-22.833959 0-41.453423-18.590221-41.453422-41.465465v-200.560046c0-22.846 18.616024-41.437941 41.465464-41.437941h133.718165c22.808156 0 41.422459 18.591941 41.422459 41.437941v50.202369a41.560075 41.560075 0 0 1-6.956496 23.02146L1018.278609 562.452873z m51.162241-208.980434h-104.473015v171.357901h11.012732l93.460283-140.14828v-31.209621z"  horiz-adv-x="1448" />

    
    <glyph glyph-name="gouwuche" unicode="&#58896;" d="M347.136 112.63999999999999q19.456 0 36.864-7.168t30.72-19.968 20.48-30.208 7.168-36.864-7.168-36.864-20.48-30.208-30.72-20.48-36.864-7.68q-20.48 0-37.376 7.68t-30.208 20.48-20.48 30.208-7.168 36.864 7.168 36.864 20.48 30.208 30.208 19.968 37.376 7.168zM773.12 110.59199999999998q19.456 0 37.376-7.168t30.72-19.968 20.48-30.208 7.68-36.864-7.68-36.864-20.48-30.208-30.72-20.48-37.376-7.68-36.864 7.68-30.208 20.48-20.48 30.208-7.68 36.864 7.68 36.864 20.48 30.208 30.208 19.968 36.864 7.168zM945.152 692.2239999999999q28.672 0 44.544-7.68t22.528-18.944 6.144-24.064-3.584-22.016-12.8-37.888-22.016-62.976-24.064-68.096-17.92-53.248q-13.312-40.96-33.792-56.832t-50.176-15.872l-34.816 0-66.56 0-87.04 0-95.232 0-253.952 0 15.36-92.16 516.096 0q49.152 0 49.152-41.984 0-20.48-9.728-35.328t-38.4-14.848l-49.152 0-95.232 0-117.76 0-119.808 0-98.304 0-56.32 0q-20.48 0-34.304 9.216t-23.04 24.064-14.848 32.256-8.704 32.768q-1.024 6.144-5.632 29.696t-11.264 58.88-14.848 78.848-16.384 87.552q-19.456 103.424-44.032 230.4l-76.8 0q-15.36 0-25.6 7.68t-16.896 18.432-9.216 23.04-2.56 22.528q0 20.48 13.824 33.792t37.376 13.312l22.528 0 20.48 0 25.6 0 34.816 0q20.48 0 32.768-6.144t19.456-15.36 10.24-19.456 5.12-17.408q2.048-8.192 4.096-23.04t4.096-30.208q3.072-18.432 6.144-38.912l700.416 0z"  horiz-adv-x="1024" />

    
    <glyph glyph-name="wodedangxuan" unicode="&#58897;" d="M907.264-70.656H114.688c-16.384 0-32.768 8.192-43.008 20.48-10.24 14.336-14.336 30.72-10.24 47.104 40.96 208.896 210.944 364.544 415.744 380.928 68.608 0 142.848-8.704 217.088-38.912 21.504-8.704 28.672-14.336 40.96-20.48 118.784-67.584 200.704-184.32 227.328-321.536 4.096-16.384 0-32.768-12.288-47.104-10.24-12.288-26.624-20.48-43.008-20.48zM115.712-37.376c-6.656 0-12.8 2.56-16.384 7.168-0.512 0.512-0.512 1.024-1.024 1.536-5.12 5.12-5.632 13.824-4.608 18.944 37.888 194.56 197.12 340.48 387.584 354.304h15.36c91.648 0 179.712-28.672 222.72-55.808 112.64-67.584 187.904-173.568 211.456-298.496 1.024-7.168-0.512-13.824-5.632-20.48-3.584-4.608-9.728-7.168-16.384-7.168H115.712zM496.64 332.288c89.088 0 174.592-27.648 216.064-53.76h0.512c109.568-65.024 182.272-167.936 204.8-289.792 0.512-2.56 0.512-6.144-3.584-10.752-0.512-1.024-3.072-2.048-6.144-2.048H115.712c-3.072 0-5.632 1.024-6.144 2.048-0.512 1.024-1.536 2.048-2.56 2.56-1.024 1.024-2.048 4.096-1.024 7.68 36.864 188.928 190.976 330.24 375.808 344.064 4.608-0.512 9.728 0 14.848 0m0 25.6c-5.12 0-10.752 0-15.872-0.512-196.608-14.336-360.448-163.84-399.36-364.544-2.048-10.24 0-22.528 8.192-30.72 6.144-8.192 16.384-12.288 26.624-12.288h792.576c10.24 0 20.48 4.096 26.624 12.288 6.144 8.192 10.24 18.432 8.192 30.72-24.576 131.072-102.4 238.592-217.088 307.2-43.52 27.136-132.608 57.856-229.888 57.856zM512 359.424c-129.024 0-235.52 106.496-235.52 235.52s106.496 235.52 235.52 235.52 235.52-106.496 235.52-235.52-106.496-235.52-235.52-235.52zM512 392.704c-111.616 0-202.24 90.624-202.24 202.24S400.384 797.184 512 797.184s202.24-90.624 202.24-202.24-90.624-202.24-202.24-202.24zM512 784.384c104.448 0 189.44-84.992 189.44-189.44s-84.992-189.44-189.44-189.44-189.44 84.992-189.44 189.44 84.992 189.44 189.44 189.44m0 25.6c-118.784 0-215.04-96.256-215.04-215.04s96.256-215.04 215.04-215.04 215.04 96.256 215.04 215.04-96.256 215.04-215.04 215.04z"  horiz-adv-x="1024" />

    
    <glyph glyph-name="kuaidi2" unicode="&#59559;" d="M689.834667 154.721524h-165.059048a24.966095 24.966095 0 0 0-25.502476 24.819809c0 13.897143 11.215238 24.81981 25.502476 24.81981h139.50781v421.790476a24.966095 24.966095 0 0 1-25.551239 24.868571H229.961143a24.966095 24.966095 0 0 1-25.551238-24.868571c0-13.848381-11.215238-24.771048-25.551238-24.771048H118.491429a24.966095 24.966095 0 0 0-25.551239 24.81981c0 13.897143 11.215238 24.771048 25.551239 24.771048h38.863238c10.727619 28.769524 38.814476 49.639619 72.021333 49.639619h408.81981c42.422857 0 76.653714-33.255619 76.653714-74.410667v-446.659048a24.478476 24.478476 0 0 0-25.063619-24.819809zM345.965714 154.721524h-116.053333c-42.374095 0-76.604952 33.255619-76.604952 74.459428 0 13.897143 11.215238 24.81981 25.551238 24.81981 14.287238 0 25.551238-10.922667 25.551238-24.868572 0-13.848381 11.215238-24.771048 25.551238-24.771047h116.004571c14.287238 0 25.551238-10.922667 25.551238-24.868572a25.258667 25.258667 0 0 0-25.551238-24.771047zM972.458667 154.721524h-35.791238a24.966095 24.966095 0 0 0-25.551239 24.819809c0 13.897143 11.215238 24.81981 25.551239 24.81981h35.791238V359.619048L874.300952 502.101333h-157.354666v-297.74019h40.862476c14.336 0 25.551238-10.922667 25.551238-24.868572 0-13.848381-11.215238-24.771048-25.551238-24.771047H691.44381a24.966095 24.966095 0 0 0-25.551239 24.819809V526.872381c0 13.897143 11.215238 24.81981 25.551239 24.819809h182.905904c16.871619 0 33.255619-8.43581 42.422857-21.845333l98.108953-142.384762c5.656381-8.484571 8.728381-17.895619 8.728381-27.794285v-155.355429c0-27.306667-23.015619-49.639619-51.102476-49.639619zM436.906667 67.388952c-63.390476 0-114.980571 50.127238-114.980572 111.664762s51.638857 111.664762 114.980572 111.664762c63.390476 0 114.980571-50.127238 114.980571-111.664762s-51.638857-111.664762-114.980571-111.664762z m0 173.689905c-35.254857 0-63.878095-27.794286-63.878096-62.025143 0-34.230857 28.623238-62.025143 63.878096-62.025143 35.254857 0 63.878095 27.794286 63.878095 62.025143 0 34.230857-28.623238 62.025143-63.878095 62.025143zM849.286095 67.388952c-63.390476 0-114.980571 50.127238-114.980571 111.664762s51.638857 111.664762 114.980571 111.664762c63.390476 0 114.980571-50.127238 114.980572-111.664762s-51.638857-111.664762-114.980572-111.664762z m0 173.689905c-35.254857 0-63.878095-27.794286-63.878095-62.025143 0-34.230857 28.623238-62.025143 63.878095-62.025143 35.254857 0 63.878095 27.794286 63.878095 62.025143 0 34.230857-28.623238 62.025143-63.878095 62.025143zM260.632381 513.024h-117.516191a24.966095 24.966095 0 0 0-25.6 24.81981c0 13.897143 11.215238 24.81981 25.551239 24.819809h117.51619c14.336 0 25.6-10.922667 25.6-24.819809 0-13.897143-11.264-24.81981-25.551238-24.81981zM204.409905 314.514286h-117.516191a24.966095 24.966095 0 0 0-25.551238 24.819809c0 13.897143 11.215238 24.81981 25.551238 24.81981h117.516191c14.287238 0 25.551238-10.922667 25.551238-24.81981 0-13.897143-11.215238-24.81981-25.551238-24.819809zM373.028571 423.69219H25.551238A24.966095 24.966095 0 0 0 0 448.560762c0 13.848381 11.215238 24.771048 25.551238 24.771048H373.028571c14.287238 0 25.551238-10.922667 25.551239-24.81981 0-13.897143-11.215238-24.81981-25.551239-24.81981zM945.347048 413.744762h-153.307429a24.966095 24.966095 0 0 0-25.551238 24.868571c0 13.848381 11.215238 24.771048 25.551238 24.771048h153.307429c14.336 0 25.551238-10.922667 25.551238-24.771048 0-13.897143-11.215238-24.868571-25.551238-24.868571z"  horiz-adv-x="1024" />

    
    <glyph glyph-name="kuaidi3" unicode="&#58958;" d="M512.649853 896C230.403799 896 0.767826 666.344031 0.767826 384.117973c0-282.229057 229.655969-511.886026 511.882027-511.886026 282.229057 0 511.886026 229.656968 511.886026 511.886026C1024.534879 666.344031 794.898906 896 512.649853 896z m0-981.346664c-258.862351 0-469.439643 210.599286-469.439643 469.464637 0 258.860352 210.577291 469.464637 469.439643 469.464637 258.865351 0 469.444641-210.604285 469.444641-469.464637-0.001-258.865351-210.579291-469.464637-469.444641-469.464637z m0 474.302541M311.420444 549.410524L160.963532 398.953612v-137.727796c0-23.756618 19.438596-43.195214 43.191214-43.195214h28.236603c10.865538-33.803341 42.563357-58.274797 79.97688-58.274797 37.418522 0 69.111342 24.471456 79.973881 58.274797h46.528458c10.605597 0 20.351389 3.893118 27.893681 10.302666 7.32834-5.725703 16.523256-9.152926 26.487999-9.152926h79.302033c10.502621-34.406205 42.490373-59.424537 80.331799-59.424537 37.837427 0 69.82518 25.018332 80.3328 59.424537h55.309469c23.753618 0 43.188215 19.429598 43.188215 43.186216L831.811543 602.993384s-1.615634 44.938819-45.50769 44.938819c-10.10571 0-293.050606-0.252943-293.050606-0.252943-23.753618 0-43.188215-19.432597-43.188215-43.191214v-56.566185a42.880285 42.880285 0 0 1-11.194464 1.487663H311.420444z m341.467636-358.004889c-28.907451 0-52.336143 23.428692-52.336143 52.340141 0 28.902452 23.428692 52.331144 52.336143 52.331144 28.898453 0 52.331144-23.428692 52.331144-52.331144 0-28.91145-23.433691-52.340142-52.331144-52.340141z m-167.202118 89.365753V586.094213c0 11.87431 9.715799 21.591108 21.591108 21.591108h85.284678l178.850479 0.118973s25.090315 0.153965 25.090315-24.817377-0.409907-302.215529-0.409907-302.215529c0-11.884307-9.716799-21.601106-21.595107-21.601106h-39.042155c-7.247358 39.01716-41.457607 68.560467-82.567293 68.560467-41.114685 0-75.323934-29.543307-82.571292-68.560467h-63.034719c-11.880308 0-21.596107 9.717798-21.596107 21.601106zM220.797975 412.695499l50.173633 50.168633h113.734232c8.816003 0 16.024369-7.207367 16.02437-16.027368v-29.492319c0-8.816003-7.208367-16.027369-16.02437-16.027368H236.125503c-7.19537 0-13.322982 4.814909-15.327528 11.378422z m91.570254-221.289864c-28.907451 0-52.336143 23.428692-52.336143 52.340141 0 28.902452 23.433691 52.331144 52.336143 52.331144s52.331144-23.428692 52.331144-52.331144c0.001-28.91145-23.428692-52.340142-52.331144-52.340141z m-117.391403 81.357567V386.878348l4.841903 4.840903c5.69571-8.989963 15.720438-14.993603 27.094861-14.993603h164.181802c17.626007 0 32.051738 14.421733 32.051739 32.051738v46.631435c0 17.626007-14.425732 32.047739-32.051739 32.04774H295.563036l28.812473 28.817471h105.881011c8.835998 0 16.476267-5.375782 19.804513-13.02005V264.191144c-3.328246-7.639269-10.968515-13.01905-19.804513-13.01905h-34.235244c-3.756149 42.905279-39.773989 76.558655-83.653047 76.558655s-79.896898-33.653375-83.656047-76.558655h-12.13525c-11.879309 0-21.600106 9.716799-21.600106 21.591108z m0 0"  horiz-adv-x="1024" />

    


  </font>
</defs>
</svg>
